<svg xmlns="http://www.w3.org/2000/svg" width="500" height="500" viewBox="0 0 500 500">
    <defs>
        <radialGradient id="a" cx="49.996%" cy="50.003%" r="78.57%" fx="49.996%" fy="50.003%" gradientTransform="matrix(.50394 0 0 1 .248 0)">
            <stop offset="0%" stop-color="#2E6474" stop-opacity=".8"/>
            <stop offset="25%" stop-color="#2F6574" stop-opacity=".77"/>
            <stop offset="44%" stop-color="#336A74" stop-opacity=".69"/>
            <stop offset="63%" stop-color="#397275" stop-opacity=".54"/>
            <stop offset="80%" stop-color="#427D76" stop-opacity=".34"/>
            <stop offset="96%" stop-color="#4D8B77" stop-opacity=".07"/>
            <stop offset="100%" stop-color="#508F77" stop-opacity="0"/>
        </radialGradient>
        <linearGradient id="b" x1="0%" x2="99.999%" y1="50.004%" y2="50.004%">
            <stop offset="0%" stop-color="#427E76"/>
            <stop offset="100%" stop-color="#245873"/>
        </linearGradient>
        <linearGradient id="c" x1="0%" x2="100.006%" y1="50%" y2="50%">
            <stop offset="0%" stop-color="#005376"/>
            <stop offset="100%" stop-color="#43A175"/>
        </linearGradient>
        <linearGradient id="d" x1="0%" x2="99.992%" y1="341.552%" y2="341.552%">
            <stop offset="0%" stop-color="#005376"/>
            <stop offset="100%" stop-color="#43A175"/>
        </linearGradient>
        <radialGradient id="e" cx="49.996%" cy="49.997%" r="55.293%" fx="49.996%" fy="49.997%" gradientTransform="matrix(1 0 0 .83176 0 .084)">
            <stop offset="0%" stop-color="#362B74"/>
            <stop offset="100%" stop-color="#3C1A4E"/>
        </radialGradient>
        <linearGradient id="f" x1="0%" y1="50%" y2="50%">
            <stop offset="0%" stop-color="#005376"/>
            <stop offset="100%" stop-color="#43A175"/>
        </linearGradient>
        <linearGradient id="g" x1="0%" y1="49.953%" y2="49.953%">
            <stop offset="0%" stop-color="#005376"/>
            <stop offset="100%" stop-color="#43A175"/>
        </linearGradient>
        <linearGradient id="h" x1="0%" y1="50.033%" y2="50.033%">
            <stop offset="0%" stop-color="#005376"/>
            <stop offset="100%" stop-color="#43A175"/>
        </linearGradient>
        <linearGradient id="i" x1="-7.292%" x2="111.175%" y1="82.079%" y2="21.444%">
            <stop offset="0%" stop-color="#005376"/>
            <stop offset="100%" stop-color="#43A175"/>
        </linearGradient>
        <linearGradient id="j" x1="93.929%" x2="16.493%" y1="85.796%" y2="5.784%">
            <stop offset="38%" stop-color="#005376"/>
            <stop offset="100%" stop-color="#43A175"/>
        </linearGradient>
        <linearGradient id="k" x1="-.038%" y1="50%" y2="50%">
            <stop offset="0%" stop-color="#005376"/>
            <stop offset="100%" stop-color="#43A175"/>
        </linearGradient>
        <linearGradient id="l" x1="-8.379%" x2="106.8%" y1="52.265%" y2="48.303%">
            <stop offset="0%" stop-color="#052133"/>
            <stop offset="45%" stop-color="#051320"/>
        </linearGradient>
        <linearGradient id="m" x1="36.948%" x2="-49.564%" y1="148.815%" y2="114.453%">
            <stop offset="0%" stop-color="#052133"/>
            <stop offset="45%" stop-color="#051320"/>
        </linearGradient>
        <linearGradient id="n" x1=".006%" x2="99.997%" y1="50.014%" y2="50.014%">
            <stop offset="0%" stop-color="#D8ECEE"/>
            <stop offset="100%" stop-color="#DAE6D9"/>
        </linearGradient>
        <linearGradient id="o" x1="-.036%" y1="50%" y2="50%">
            <stop offset="0%" stop-color="#1F5273"/>
            <stop offset="100%" stop-color="#5D9F78"/>
        </linearGradient>
        <linearGradient id="p" x1="-.146%" x2="100.029%" y1="49.854%" y2="49.854%">
            <stop offset="0%" stop-color="#1F5273"/>
            <stop offset="100%" stop-color="#5D9F78"/>
        </linearGradient>
        <linearGradient id="q" x1="0%" x2="99.982%" y1="49.955%" y2="49.955%">
            <stop offset="0%" stop-color="#1F5273"/>
            <stop offset="8%" stop-color="#245873"/>
        </linearGradient>
        <linearGradient id="r" x1="24.263%" x2="78.109%" y1="7.24%" y2="91.41%">
            <stop offset="0%" stop-color="#1F5273"/>
            <stop offset="100%" stop-color="#5D9F78"/>
        </linearGradient>
        <linearGradient id="s" x1="4.536%" x2="100.825%" y1="22.025%" y2="81%">
            <stop offset="0%" stop-color="#1F5273"/>
            <stop offset="100%" stop-color="#5D9F78"/>
        </linearGradient>
        <linearGradient id="t" x1="3.263%" x2="91.147%" y1="48.492%" y2="63.569%">
            <stop offset="0%" stop-color="#1F5273"/>
            <stop offset="8%" stop-color="#245873"/>
        </linearGradient>
        <linearGradient id="u" x1="3.995%" x2="69.499%" y1="1.82%" y2="98.565%">
            <stop offset="0%" stop-color="#005376"/>
            <stop offset="100%" stop-color="#43A175"/>
        </linearGradient>
        <linearGradient id="v" x1="12.336%" x2="121.285%" y1="90.165%" y2="52.614%">
            <stop offset="0%" stop-color="#1F5273"/>
            <stop offset="100%" stop-color="#5D9F78"/>
        </linearGradient>
        <linearGradient id="w" x1="2855.134%" x2="2980.3%" y1="-4283.651%" y2="-4341.41%">
            <stop offset="0%" stop-color="#1F5273"/>
            <stop offset="100%" stop-color="#5D9F78"/>
        </linearGradient>
        <linearGradient id="x" x1="2850.346%" x2="2975.542%" y1="-4279.339%" y2="-4337.11%">
            <stop offset="0%" stop-color="#1F5273"/>
            <stop offset="100%" stop-color="#5D9F78"/>
        </linearGradient>
        <linearGradient id="y" x1="-5.959%" x2="93.475%" y1="69.423%" y2="34.866%">
            <stop offset="0%" stop-color="#005376"/>
            <stop offset="100%" stop-color="#43A175"/>
        </linearGradient>
        <linearGradient id="z" x1="8.701%" x2="59.885%" y1="68.108%" y2="45.787%">
            <stop offset="0%" stop-color="#005376"/>
            <stop offset="100%" stop-color="#43A175"/>
        </linearGradient>
        <linearGradient id="A" x1="68.042%" x2="49.34%" y1="130.454%" y2="26.664%">
            <stop offset="0%" stop-color="#1F5273"/>
            <stop offset="100%" stop-color="#5D9F78"/>
        </linearGradient>
        <linearGradient id="B" x1="68.042%" x2="49.34%" y1="130.232%" y2="26.432%">
            <stop offset="0%" stop-color="#1F5273"/>
            <stop offset="100%" stop-color="#5D9F78"/>
        </linearGradient>
        <linearGradient id="C" x1="19.559%" x2="80.335%" y1="73.747%" y2="26.296%">
            <stop offset="0%" stop-color="#005376"/>
            <stop offset="100%" stop-color="#43A175"/>
        </linearGradient>
        <linearGradient id="D" x1="18.182%" x2="81.868%" y1="73.826%" y2="26.167%">
            <stop offset="0%" stop-color="#005376"/>
            <stop offset="100%" stop-color="#43A175"/>
        </linearGradient>
        <linearGradient id="E" x1="0%" y1="50.047%" y2="50.047%">
            <stop offset="0%" stop-color="#005376"/>
            <stop offset="100%" stop-color="#43A175"/>
        </linearGradient>
    </defs>
    <g fill="none" fill-rule="evenodd">
        <path fill="url(#a)" fill-rule="nonzero" d="M4.88 332.15v.08l24.84-14.35 32.63 18.82-32.59 18.81-24.55-14.17v.07l24.51 14.15-24.6 14.2v.07l24.64-14.22 32.59 18.82-32.59 18.81-25-14.41v.07l24.93 14.39L5 407.53v.07l24.71-14.26 32.59 18.81L29.76 431 5.6 417v.07L29.68 431l-25.1 14.51v.07l25.13-14.52L57.36 447h.17l-27.69-16 32.6-18.82L95 431l-27.66 16h.17l27.6-15.94 27.6 15.94h.16l-27.68-16 32.59-18.82L160.37 431l-27.68 16h.16l27.61-15.94 27.6 15.94h.16l-27.68-16 32.59-18.82L225.72 431 198 447h.16l27.6-15.94L253.4 447h.17l-27.69-16 32.6-18.82L291.07 431l-27.69 16h.17l27.6-15.94 27.6 15.94h.16l-27.68-16 32.59-18.82L356.41 431l-27.68 16h.16l27.61-15.94L384.1 447h.16l-27.68-16 32.59-18.82L421.76 431l-27.68 16h.16l27.6-15.94 27.6 15.94h.17l-27.69-16 32.6-18.82 20.3 11.72v-.07l-20.26-11.7 20.93-12.08v-.07l-21 12.11-32.6-18.82 32.6-18.82 20.33 11.74v-.07l-20.22-11.69 21-12.11v-.07l-21 12.13-32.6-18.82 32.6-18.82 20.4 11.84v-.07l-20.4-11.81 21.33-12.32v-.07l-21.37 12.34-32.6-18.82 53.76-31v-.07l-53.8 31.06L389.25 299l87.07-50.27v-.07l-87.11 50.29-32.59-18.81 110.64-63.89v-.07L356.5 280.06l-32.6-18.82 89.66-51.15v-.07l-89.7 51.17-32.59-18.81 58.31-33.06v-.07l-58.35 33.08-32.59-18.82 24.09-13.8v-.07l-24.13 13.83-23.59-13.83v.07l23.54 13.8-32.75 18.82-32.54-18.79v.07l32.5 18.77-32.59 18.81-32.59-18.81 56.85-32.67v-.07l-56.89 32.69-18.58-10.72v.07l18.53 10.7-32.59 18.81-54.7-31.58v.07l54.66 31.56-32.75 18.82-81.83-47.24v.07L95 280.11l-32.6 18.81-57.23-33v.07l57.19 33-32.6 18.8-25.22-14.56v.07l25.18 14.53-24.84 14.32zm25 23.41l32.6-18.82L95 355.56l-32.56 18.82-32.56-18.82zm65.35 0l32.59-18.82 32.59 18.82-32.59 18.82-32.59-18.82zm32.51 18.87l-32.63 18.81-32.59-18.81 32.59-18.82 32.63 18.82zm.16-37.73l32.6-18.82 32.59 18.82-32.59 18.81-32.6-18.81zm32.6 18.91l32.59 18.82-32.59 18.81-32.6-18.81 32.6-18.82zm.08-.05l32.59-18.82 32.59 18.82-32.59 18.82-32.59-18.82zm97.94-18.91l-32.6-18.82L258.48 299l32.59 18.81-32.55 18.84zm32.67-18.77l32.59 18.82-32.59 18.81-32.63-18.81 32.63-18.82zm-32.8 18.82l-32.59 18.81-32.59-18.81 32.59-18.82 32.59 18.82zm-32.59 18.91l32.59 18.82-32.59 18.81-32.59-18.81 32.59-18.82zm.08-.05l32.6-18.82 32.59 18.82-32.59 18.82-32.6-18.82zm65.27.05l32.59 18.82-32.59 18.81-32.59-18.81 32.59-18.82zm.08-.05l32.59-18.82 32.59 18.82-32.59 18.82-32.59-18.82zm65.27.05l32.59 18.82-32.59 18.81-32.6-18.81 32.6-18.82zm.08-.05l32.59-18.82 32.59 18.82-32.59 18.82-32.59-18.82zm-.08-.05l-32.6-18.81 32.6-18.82 32.59 18.82-32.59 18.81zm-32.68-18.86l-32.59-18.82L323.82 299l32.59 18.81-32.59 18.84zm-32.67-18.86L258.56 299l32.59-18.82L323.74 299l-32.59 18.79zm-32.67-18.87l-32.6-18.81 32.6-18.82 32.59 18.82-32.59 18.81zm-.09.05l-32.59 18.82L193.21 299l32.59-18.82 32.59 18.79zm-32.67 18.86l-32.59 18.82-32.59-18.82L193.13 299l32.59 18.83zm-65.26 0L127.86 299l32.6-18.82L193.05 299l-32.59 18.83zm-.09 0l-32.59 18.82-32.59-18.82L127.78 299l32.59 18.83zM127.7 336.7l-32.59 18.81-32.59-18.81 32.59-18.82 32.59 18.82zm-97.86 56.59l32.6-18.82L95 393.29l-32.56 18.82-32.6-18.82zM95.11 431l-32.59-18.85 32.59-18.81 32.59 18.81L95.11 431zm.08-37.68l32.59-18.82 32.59 18.82-32.59 18.82-32.59-18.82zM160.46 431l-32.6-18.82 32.6-18.81 32.59 18.81L160.46 431zm.08-37.68l32.59-18.82 32.59 18.82-32.59 18.82-32.59-18.82zM225.8 431l-32.59-18.82 32.59-18.81 32.59 18.81L225.8 431zm.08-37.68l32.6-18.82 32.59 18.82-32.59 18.82-32.6-18.82zM291.15 431l-32.59-18.82 32.59-18.81 32.59 18.81L291.15 431zm.08-37.68l32.59-18.82 32.59 18.82-32.59 18.82-32.59-18.82zM356.5 431l-32.6-18.82 32.6-18.81 32.59 18.81L356.5 431zm.08-37.68l32.59-18.82 32.59 18.82-32.59 18.82-32.59-18.82zm97.85 18.86L421.84 431l-32.59-18.82 32.59-18.81 32.59 18.81zm0-37.72l-32.59 18.81-32.59-18.81 32.59-18.82 32.59 18.82zm0-37.73l-32.59 18.81-32.59-18.84 32.59-18.82 32.59 18.85zm-32.67-18.87l-32.59 18.82-32.59-18.82L389.17 299l32.59 18.86zM389.09 299l-32.59 18.79L323.9 299l32.6-18.82L389.09 299zm-32.68-18.86l-32.59 18.81-32.59-18.81 32.59-18.82 32.59 18.82zm-32.67-18.87l-32.59 18.82-32.59-18.82 32.59-18.82 32.59 18.82zm-65.26-37.68l32.59 18.82-32.59 18.81-32.6-18.81 32.6-18.82zm-32.68 18.83l32.59 18.82-32.59 18.82-32.59-18.82 32.59-18.82zm-.08 37.69l-32.59 18.81-32.59-18.81 32.59-18.82 32.59 18.82zm-65.26-37.69l32.59 18.82-32.59 18.82-32.6-18.82 32.6-18.82zm-32.68 18.87l32.59 18.82-32.59 18.81-32.59-18.81 32.59-18.82zm-32.67 18.86L127.7 299l-32.59 18.79L62.52 299l32.59-18.85zM62.43 299L95 317.83l-32.56 18.82-32.6-18.82L62.43 299z"/>
        <path fill="url(#b)" d="M197.51 156.25V268a5.57 5.57 0 0 0 2.78 4.82l141.59 80.63c6.14 3.5 14.72-.86 14.78-7.92v-92c.07-5.68-2.9-13.13-7.78-16.1l-145-84.06c-2.34-1.37-6.37.31-6.37 2.88z"/>
        <path fill="url(#c)" d="M195.34 157.37v111.78a5.56 5.56 0 0 0 2.77 4.81l141.59 80.63c6.14 3.5 14.72-.86 14.78-7.92v-92c.07-5.68-2.9-13.2-7.78-16.1l-145.09-84.1c-2.25-1.32-6.27.26-6.27 2.9z"/>
        <path fill="url(#d)" d="M170 269l-76.54 42a10.14 10.14 0 0 0 5.08 8.91L249 407.05a16 16 0 0 0 15.84.13l77.46-43.35a12.21 12.21 0 0 0 6.13-9.11l-148.8-85.51A30.37 30.37 0 0 0 170 269z"/>
        <path fill="#DDD" d="M170 269l-75.88 41.38 153.41 88.75a17.63 17.63 0 0 0 17.42.13l83.46-44.67-148.78-85.38c-11.88-5.08-18.08-5.08-29.63-.21z" opacity=".29"/>
        <path stroke="#FFF" d="M165.78 332.36l49 29a7.16 7.16 0 0 0 7.19.06l25.34-14.18a2.26 2.26 0 0 0 .86-3 2.3 2.3 0 0 0-.79-.79l-49.29-29.23a5.26 5.26 0 0 0-5.21-.07l-27 15.18a1.76 1.76 0 0 0-.73 2.38 1.2 1.2 0 0 0 .63.65zM323.54 357.49a5.72 5.72 0 0 0 2-7.91 6.26 6.26 0 0 0-2.11-2.11l-129.32-73.9a13.51 13.51 0 0 0-13.59.06"/>
        <path fill="url(#e)" d="M346.06 340.12L204.47 258.9v-89.01l141.59 81.29z"/>
        <path fill="#FFF" d="M241.73 336.12l7.92-4.57 2.5 1.45-7.92 4.57z"/>
        <path fill="#A8C4E5" fill-rule="nonzero" d="M181.46 310L159 297l8.19-4.73 49.93-7 14.69 8.48-30.09 17.38 6 3.44-9.08 5.24-6-3.44-12.33 7.12-11.18-6.45 12.33-7.04zm9.08-5.25l8.36-4.82c3.32-1.92 8.6-4.59 12-6.37l-.33-.19c-4.15.89-8.54 1.73-12.92 2.56l-18 2.51 10.89 6.31zM258.67 360.67l-22.45-13 8.19-4.73 49.93-7 14.66 8.57-30.1 17.37 6 3.44-9.08 5.25-6-3.44-12.33 7.12-11.18-6.46 12.36-7.12zm9.08-5.24l8.36-4.83c3.32-1.92 8.6-4.58 12-6.36l-.32-.19c-4.15.88-8.54 1.72-12.93 2.56l-18 2.5 10.89 6.32zM217.21 314.9c17.52-10.11 33.95-11 45-4.62 11.05 6.38 9.52 15.9-8 26s-34.36 11.25-45.46 4.85c-11.1-6.4-9.07-16.13 8.46-26.23zm25.71 14.85C257 321.6 257.09 318 253 315.62c-4.09-2.38-10.35-2.32-24.46 5.83-14.11 8.15-14.5 12.05-10.5 14.36 4 2.31 10.84 2.04 24.88-6.06z" opacity=".4" style="mix-blend-mode:multiply"/>
        <path fill="url(#f)" d="M155.78 292.94l12.57-7.3 10.24 5.91-12.57 7.31z"/>
        <path fill="#005479" d="M176.45 314.73l12.58-7.31-.04 13.34-12.57 7.31z"/>
        <path fill="url(#f)" d="M182.06 308.12l12.57-7.31-.03 9.83-12.57 7.31z"/>
        <path fill="url(#g)" d="M176.48 304.9l12.57-7.31 5.58 3.22-12.57 7.31z"/>
        <path fill="#2B1BA8" d="M166.23 277.44l12.57-7.31c-1.23 2.37-2.61 4.73-4 7.1l-12.57 7.31c1.39-2.37 2.77-4.74 4-7.1"/>
        <path fill="#005479" d="M176.57 272.33l12.58-7.31-.1 32.57-12.57 7.31z"/>
        <path fill="url(#h)" d="M162.82 264.39l12.58-7.31 13.75 7.94-12.58 7.31z"/>
        <path fill="#FFF" fill-rule="nonzero" d="M177.64 304.22l5.57 3.22v9.83L182 318l-4.42-3.9v13.35l-1.15.67-9.32-6.72v-13.34l-21-12.13v-8.86l16.66-22.63 1.16-.67 13.75 7.94-.04 32.51zm-10.44-15.08c0-3.6.33-8.78.49-12.2l-.31-.18c-1.23 2.37-2.61 4.74-4 7.1l-6.46 8.41 10.24 5.91v-9l.04-.04z"/>
        <path fill="url(#i)" d="M207.88 335.53l.21-.1 13.33-7.3-.21.1h-.07l-.14.06-.19.06h-2.06l-.14-.05h-.09l-.13-.06h-.11l-.13-.06-.13-.06-.22-.12-.1-.05-.17-.1h-.06l-.23-.14-.19-.12-.07-.05-.15-.11-.07-.05-.17-.13-.2-.17-.06-.05-.14-.12a.46.46 0 0 1-.07-.07l-.12-.1-.07-.07-.11-.11-.07-.07-.11-.12-.07-.07-.13-.15-.05-.05-.17-.2-.16-.2v-.06a6.29 6.29 0 0 1-.31-.41v-.06c-.07-.11-.15-.21-.22-.33v-.07l-.14-.21a.31.31 0 0 1 0-.1c-.05-.07-.1-.16-.15-.24v-.06l-.17-.3v-.08l-.12-.25-.06-.11-.1-.21a.54.54 0 0 1 0-.11l-.12-.26v-.07l-.15-.35v-.09c0-.1-.08-.21-.13-.32-.05-.11 0-.08 0-.11l-.15-.42-.18-.52v-.08c-.05-.18-.11-.37-.17-.56-.06-.19 0-.09 0-.14a1.05 1.05 0 0 1-.05-.19l-.06-.19a1.33 1.33 0 0 0 0-.19c0-.06 0-.13-.05-.19l-.06-.24V319l-.06-.25a1 1 0 0 1 0-.17c0-.12-.06-.23-.08-.35v-.12l-.09-.47v-.09l-.09-.44v-.17l-.06-.39v-.16c0-.2-.07-.41-.1-.61v-.1c0-.18-.06-.37-.08-.55a1 1 0 0 1 0-.17c0-.23-.07-.48-.09-.72v-.13c0-.23-.05-.47-.08-.71v-.11-.53-.55a1.94 1.94 0 0 0 0-.24v-.31-.25-.3-.38-.25-.42-.23-.52a.71.71 0 0 1 0-.14v-.68a.57.57 0 0 1 0-.13v-.61a2.09 2.09 0 0 1 0-.25v-.79V304.56v-.46-.89-.42-.43-.4-.42-.47-.25V300.12v-.68-.21-.45-.18c0-.06 0-.31.05-.45s0-.11 0-.17c0-.06 0-.38.07-.57V297c0-.17 0-.34.07-.5v-.13c0-.16.05-.32.07-.47v-.05c0-.16 0-.32.08-.48v-.12l.09-.46.09-.43v-.09l.09-.39c0-.15.07-.29.11-.43v-.05c0-.16.09-.31.13-.45l.05-.14.09-.28v-.15l.09-.23.06-.15.09-.22.06-.14.1-.21.06-.12.15-.28v-.05l.18-.29.11-.15v-.06l.15-.19v-.05l.12-.13.06-.06.11-.1.06-.06.11-.09.06-.05.12-.09h.06l.17-.11-13.33 7.31-.17.1h-.06l-.12.08-.06.06-.11.08-.06.06-.11.11a.12.12 0 0 0-.05.05l-.13.14-.16.2-.09.13-.18.29a2.69 2.69 0 0 0-.16.29v.08a1.86 1.86 0 0 1-.1.2l-.96.27-.09.22a.36.36 0 0 1 0 .09.14.14 0 0 1 0 .06l-.09.24a.88.88 0 0 1-.05.15l-.09.27v.12c0 .15-.08.3-.13.46v.05c0 .14-.07.28-.11.43 0 .12 0 .24-.08.36v.08l-.09.44-.06.32v.25c0 .16-.05.32-.08.49 0 .16 0 .32-.07.48v.24c0 .04 0 .25-.05.38v.06c0 .19-.05.38-.07.57-.02.19 0 .11 0 .17v.62a.45.45 0 0 0 0 .11V306.22c0 .08 0 .44-.05.67V307.6c.005.08.005.16 0 .24v9.41a2.28 2.28 0 0 1 0 .26V318.19c.005.08.005.16 0 .24v.32a1.94 1.94 0 0 0 0 .24 3 3 0 0 0 0 .31 2 2 0 0 1 0 .23v.32a1.5 1.5 0 0 1 0 .22v.11c0 .24.06.47.08.71v.12l.09.73v.16c0 .19.05.37.08.55v.1c0 .21.07.41.1.61v.06a.43.43 0 0 0 0 .11c0 .13 0 .26.07.39v.17c0 .15 0 .29.08.44v.09l.09.47v.12c0 .11 0 .23.08.34v.13l.06.25v.18l.06.24v.18c.021.065.038.132.05.2l.06.19v.33l.18.56v.06l.18.52c.053.153.103.293.15.42v.05a.14.14 0 0 1 0 .06c.05.11.09.22.13.33v.06l.15.35v.05l.12.27v.08l.1.21v.06l.12.24v.06l.17.31c0 .08.09.16.14.24l.05.09.14.22v.05l.22.33c.1.15.2.28.31.42l.16.2.18.2.13.15.05.06.11.11.11.1h.05l.11.11.14.13.2.16.17.13.15.11.19.12.23.14a1 1 0 0 1 .17.1h.06l.2.1.12.06h.1l.11.05h1.93c.07.01.14.01.21 0h.11l.19-.05.14-.05 1.61 1.51z"/>
        <path fill="url(#j)" d="M234 317.5v-.31-.87a1.09 1.09 0 0 0 0-.18v-.06-1.06-.25c0-.28 0-.56-.05-.83a.91.91 0 0 0 0-.17.61.61 0 0 0 0-.14c0-.27 0-.53-.05-.8v-.2c0-.32 0-.65-.08-1v-.07a1.5 1.5 0 0 0 0-.2c0-.22 0-.44-.07-.66v-.33c0-.2-.05-.41-.08-.61a1.36 1.36 0 0 0 0-.2.5.5 0 0 0 0-.12c0-.2-.05-.4-.08-.6v-.28c0-.29-.09-.57-.13-.85-.05-.27-.09-.55-.14-.82 0-.09 0-.18-.05-.27-.05-.09-.06-.37-.1-.55V306v-.26l-.09-.45c0-.11-.05-.23-.07-.34l-.09-.44v-.12a.44.44 0 0 0 0-.1c-.1-.45-.2-.9-.31-1.35a.24.24 0 0 1 0-.08v-.1c-.1-.41-.21-.82-.32-1.22v-.18c-.11-.39-.22-.77-.34-1.15v-.1c-.11-.36-.23-.72-.35-1.08-.11-.33-.22-.65-.34-1a.76.76 0 0 0 0-.11v-.09l-.33-.9v-.1c-.09-.24-.19-.48-.29-.72a.61.61 0 0 0 0-.12.69.69 0 0 0 0-.1l-.33-.77c-.11-.26-.23-.52-.35-.78v-.1l-.05-.11a15.6 15.6 0 0 0-.35-.71v-.08c-.14-.28-.29-.56-.44-.84a.41.41 0 0 0-.05-.09l-.06-.11c-.08-.15-.15-.3-.23-.44l-.12-.21-.32-.56a.43.43 0 0 1 0-.07l-.57-.93-.07-.11c-.18-.29-.37-.57-.56-.85a.22.22 0 0 0-.05-.08l-.06-.1-.19-.27-.18-.25-.19-.27-.12-.17-.57-.76v-.06l-.07-.09-.42-.51-.06-.08c-.16-.19-.32-.39-.49-.58v-.05l-.09-.09-.4-.45-.08-.09v-.05l-.51-.53-.06-.06c-.16-.17-.33-.33-.5-.5l-.08-.07v-.05l-.57-.54-.06-.06-.55-.47-.08-.07-.61-.5s-.06 0-.08-.07l-.58-.44h-.06l-.64-.45-.07-.05h-.08l-.66-.44-.65-.39-.08-.05-.18-.11-.51-.28h-.07l-.12-.06-.17-.1-.22-.11-.17-.08h-.11l-.63-.29-.59-.25h-.06l-.57-.22h-.11l-.56-.18h-.08l-.56-.16-.57-.13H209.76a3 3 0 0 0-.32.06H208l-.45.1-.55-.63-.17.06-.13.05-.18.08-.11.05-.2.1h-.09l-.29.16-12.57 7.31.29-.16.09-.05.19-.09.12-.05.18-.08.12-.05.18-.07h.08l.43-.13.45-.11h.09l.32-.05.38-.05H198.96l.58.12.56.15h.08l.56.18h.1l.57.21h.09l.59.25.63.3.11.06.17.08.22.11.17.09.18.1.52.29.26.15.64.4h.05l.66.43.15.1.64.46.07.06.59.44.13.1.61.5.12.11.54.47.1.08.57.53.13.13.5.49.08.08.51.54.13.14.4.44.13.15c.17.19.33.38.49.58l.08.09.42.52.12.15.57.75.16.22.19.27.17.24.2.28c.033.059.07.116.11.17.19.28.38.57.56.86l.07.11c.19.3.38.61.56.92v.08l.32.55.11.22.24.43.11.21c.15.27.29.55.44.84v.09l.35.72c.027.07.06.136.1.2.12.26.24.53.35.79l.33.77.09.22c.1.24.2.48.29.72a.69.69 0 0 1 .05.13c.12.29.23.59.34.89l.07.21c.12.32.23.64.34 1 .12.35.24.71.35 1.08v.14c.12.38.23.77.34 1.16v.17c.11.41.22.81.32 1.23v.18c.11.44.22.89.32 1.35.012.074.029.148.05.22l.09.43c0 .12 0 .23.07.35l.09.45.06.34c0 .18.07.36.1.55.03.19 0 .17 0 .26.05.28.09.55.13.83l.12.85a2.89 2.89 0 0 1 0 .29c0 .19.06.39.08.59.02.2 0 .22 0 .32s0 .41.08.62v.33c0 .21.05.43.07.65v.28c0 .32.06.64.08 1v1.3c0 .28 0 .56.05.84v1.3a1.93 1.93 0 0 0 0 .24v5.63a1.09 1.09 0 0 0 0 .18c0 .29 0 .57-.05.85v.1l-.06.78a.92.92 0 0 1 0 .16v.35l-.06.69v.36c0 .12-.05.41-.07.62-.02.21 0 .24 0 .36l-.09.59v.32c0 .1-.07.47-.11.69v.2c-.05.28-.11.57-.16.84 0 .08 0 .15-.05.22s-.08.4-.13.6l-.06.28c0 .18-.08.35-.13.52-.05.17-.05.2-.07.29-.02.09-.09.32-.14.48a3.57 3.57 0 0 1-.1.35v.12l-.18.57v.09c-.06.18-.12.35-.18.51v.07c-.06.18-.13.35-.2.52-.07.17 0 .09-.05.13l-.19.45v.06c-.07.16-.15.32-.22.47l-.08.16c-.05.11-.11.22-.17.33-.06.11 0 .1-.08.16s-.13.22-.19.34l-.06.11c-.09.14-.18.28-.26.42-.08.14-.21.32-.32.47l-.07.09-.27.36-.12.15-.22.26-.15.16-.21.23-.15.15-.23.21-.15.14-.24.2-.15.12-.27.19-.13.09-.41.26 12.57-7.3.41-.26.13-.09.27-.2.15-.12.24-.2.15-.13.23-.21.15-.15.22-.24.14-.15.22-.27.12-.15.27-.35.07-.09.32-.48c.08-.13.17-.26.25-.4l.06-.11a3.72 3.72 0 0 0 .53-.39l.09-.16c.05-.1.11-.21.16-.33a1.09 1.09 0 0 0 .08-.15v-.08l.18-.39v-.07l.19-.45v-.12c.07-.16.13-.33.19-.5v-.06l.18-.51v-.1l.18-.56a.56.56 0 0 1 0-.12 1.21 1.21 0 0 1 .05-.18c0-.06 0-.12.05-.17.05-.05.09-.32.13-.48.04-.16 0-.2.08-.3l.12-.51c0-.07 0-.13.05-.2a.29.29 0 0 1 0-.09c0-.19.08-.39.13-.6.05-.21 0-.14 0-.21.06-.28.11-.56.16-.85v-.16c0-.23.07-.46.11-.69.04-.23 0-.22.05-.32s.05-.4.08-.6a.77.77 0 0 1 0-.15v-.21c0-.07 0-.41.07-.62.07-.21 0-.24 0-.36l.06-.68a2.11 2.11 0 0 0 0-.25.37.37 0 0 0 0-.11v-.16c0-.26 0-.52.05-.78v-.07-.84-.19a1.09 1.09 0 0 1 0-.18v-.8-.81a1.15 1.15 0 0 0 0-.19V318.68c.56-.44.56-.81.56-1.18z"/>
        <path fill="#FFF" fill-rule="nonzero" d="M205.71 286.21c10.39 6 17.29 19.79 17.29 38.72s-7 25.13-17.43 19.13-17.31-20.2-17.25-39.16c.06-18.96 7-24.69 17.39-18.69zm-.14 47.84c3.82 2.21 6.74-.07 6.78-15.25.04-15.18-2.85-20.38-6.67-22.58-3.82-2.2-6.68-.46-6.78 14.78-.1 15.24 2.93 20.86 6.67 23v.05z"/>
        <path fill="url(#f)" d="M236.45 339.52l12.57-7.31 10.24 5.91-12.57 7.31z"/>
        <path fill="#2B1BA8" d="M242.9 331.11l12.57-7.3-6.45 8.4-12.57 7.31zM246.9 324l12.57-7.3c-1.23 2.36-2.61 4.73-4 7.1l-12.57 7.3c1.39-2.37 2.77-4.73 4-7.1"/>
        <path fill="url(#k)" d="M244.5 309.97l12.57-7.31 13.75 7.94-12.57 7.3z"/>
        <path fill="#FFF" fill-rule="nonzero" d="M258.53 350.57l5.58 3.22v9.83l-1.38.9-4.2-4.12v13.45l-1.38.8-9.15-6.95v-13.34l-21-12.13v-8.86L243.49 311l1.47-.85 13.66 7.85-.09 32.57zm-10.44-15.08c0-3.6.33-8.78.5-12.2l-.31-.18c-1.23 2.37-2.61 4.74-4 7.1l-6.45 8.41 10.24 5.91v-9l.02-.04z"/>
        <path fill="#E4F1FD" fill-rule="nonzero" d="M204.16 287.2c10.38 6 17.31 19.76 17.26 38.72-.05 18.96-7 25.12-17.43 19.13-10.43-5.99-17.31-20.2-17.26-39.16.05-18.96 7.04-24.69 17.43-18.69zM204 335c3.82 2.2 6.73-.07 6.78-15.26.05-15.19-2.85-20.37-6.67-22.57-3.82-2.2-6.74-.46-6.78 14.81-.04 15.27 2.93 20.86 6.67 23v.02zM257.15 351.47l5.58 3.22v9.83l-5.58-3.22v13.35l-10.47-6v-13.34l-21-12.13v-8.86L243.49 311l13.76 7.94-.1 32.53zm-10.44-15.08c0-3.6.33-8.78.5-12.2l-.31-.18c-1.23 2.37-2.61 4.73-4 7.1l-6.45 8.41 10.24 5.91v-9l.02-.04zM176.48 304.9l5.58 3.22v9.83l-5.58-3.22v13.3L166 322v-13.34l-21-12.13v-8.87l17.81-23.3 13.75 7.94-.08 32.6zM166 289.81c0-3.6.33-8.77.5-12.2l-.31-.17c-1.23 2.36-2.61 4.73-4 7.1l-6.45 8.4 10.26 5.91v-9.04z"/>
        <path fill="url(#l)" d="M90.76 366.93c-2.87-23.43 1.37-51-5.27-50.43-8.66.79-7.22 38.95-14.71 50.43-2-24.62 1.78-48.28-.48-73.38 10-.87 18 2 28 1 5.08 27.45-7.54 72.38-7.54 72.38z"/>
        <path fill="#005479" d="M101.32 251.64c-1-8.4-4.6-18.28-13.71-15.29-9.11 2.99-13.06.07-16.23 13S67 282.62 69 297.17c10.37.54 20.75-.5 31.12-.37-.52-7.66-2.88-13.39-2.33-21.38.55-7.99 4.52-15.37 3.53-23.78z"/>
        <path fill="#DC9B93" d="M86.13 230.55c.06 2.58-.35 5.49 0 8 .43 3.26 1.7 5.84 4.85 7.09 3.91 1.55 6.85.18 6.81-4.42 0-3-.6-6.67-.38-9.83a99.75 99.75 0 0 0-11.19-.83s-.09-.04-.09-.01z"/>
        <path fill="#F8C0B6" d="M83.77 221.62a11.34 11.34 0 0 0 .12 4.18c1.58 6.18 3.19 8.69 9.86 10.6 6.67 1.91 11.94-.91 12.61-8.53.26-3.09 1.87-11.28 1.45-14-.77-5.16-6.2-4.4-11.18-4.08-.07-.38-.08-.29 0 0-7.82.47-11.63 4.33-12.86 11.83z"/>
        <path fill="url(#m)" d="M105.59 213.28c-3.39-2.94-3.84-2.58-9 1-2.9 2-4.75 12.18-8 5.7-1.63-3.24-5.23 5.3-4.11 8C78 212.3 83.09 209.22 93 207.55c8.27-1.39 11-1.7 12.59 5.73z"/>
        <path fill="#DC9B93" d="M103 223.05c-.14.88-.49 2.65-1.66 2.36-1.17-.29-.8-2-.65-2.9.15-.9.45-2.63 1.61-2.4 1.16.23.87 2.07.7 2.94zM106.18 217.93a96.64 96.64 0 0 1 4.9 12.1c-1.61-.26-3.21-.54-4.81-.85 0-3.75.01-7.5-.09-11.25z"/>
        <path fill="#F8C0B6" d="M107.91 288.41a33.25 33.25 0 0 1 2.64 5.87c.37-.72.73-1.45 1.17-2.13.471.6.997 1.156 1.57 1.66 1.83 1.13 5.55 1 4.41-.87 0-.09-.33.55 0 0s.16-1-.46-1.63c-2.23-2.38-4.44-3.44-7.33-5.77-2.89-2.33-4.38-7.17-5.52-10.84-1.65-5.31-4.57-6.09-9.46-4.08 2.34 8.04 6.07 13.08 12.98 17.79z"/>
        <path fill="#005479" d="M102.2 284.49c1.82-.41 3.39-1.29 5.2-1.51-.2-4.61-1.62-4.59-3.25-9.85s-1.29-19.06-1.6-24.63c-.31-5.57-2-3.48-4-7.13-1.64 8-7.45 14-6.92 22.37.53 8.37 4.84 14.92 10.57 20.75z"/>
        <path fill="#FFB053" d="M95.84 193c7.27.6 14.61 5.37 13 15.66-.64 3.54-15.11 7-15.11 7s-13.89.45-14-5.33c-.11-5.78 2.27-18.47 16.11-17.33z"/>
        <path fill="#DB8F5A" d="M96.45 220s5.74-6.32 16.75-5.93l.32-1.77-4.52-4.21s-1-1.8-8.09.18-9.82 5.33-10.2 6.29c-.38.96 2.57 5.44 5.74 5.44z"/>
        <path fill="#DB8F5A" d="M87.45 200.56c5.57 1.88 4.21 14.67 4.21 14.67s-13 2.36-12-4.93c1-7.29-.19-12.44 7.79-9.74z"/>
        <path fill="#FFB053" d="M113.2 214s-12.22.5-15.31 5.63c-1.41 2.34-3.74-.4-3.74-.4s.85-2.1 4.41-4 6.65-3.66 15-3"/>
        <path fill="#DB8F5A" d="M87.55 194.36s7.19 0 8.23 5.28a45 45 0 0 1 .75 10.12l2-.48s.47-6.79-1.1-10.3a8.39 8.39 0 0 0-9.88-4.62z"/>
        <path fill="#DB8F5A" d="M93.14 193.27s7.19 0 8.23 5.27a45.42 45.42 0 0 1 .74 10.13l2-.49s.47-6.79-1.1-10.3a8.37 8.37 0 0 0-9.87-4.61z"/>
        <path fill="url(#n)" d="M113.49 293.43l7.8-14.78a1.08 1.08 0 0 0-1.32-1.53l-23.8 8.56a1.12 1.12 0 0 0-.61.54l-6.86 13.94a1.08 1.08 0 0 0 1.32 1.5l22.86-7.66a1 1 0 0 0 .61-.57z"/>
        <path fill="#F8C0B6" d="M87.9 292.75c1.89.92 3.74 1.9 5.57 2.94-.74.24-1.49.45-2.2.72a22 22 0 0 1 1.49 1.82c1 1.93.78 3.71-1.38 4.53-.63.24-.94 0-1.49-.7-2-2.51-2.6-4.48-5.24-7.25-2.64-2.77-8.41-5.73-11.18-8.91-4-4.6-6.43-9.65-1-11.35 2.53-.01 11.91 12.25 15.43 18.2z"/>
        <g opacity=".38" transform="translate(40 204)">
            <circle cx="17.87" cy="17.99" r="13.84" fill="url(#o)"/>
            <path fill="url(#p)" fill-rule="nonzero" d="M17.86 35.13h-1.1l.06-.9h1.22v.91l-.18-.01zm1.57-.07l-.08-.91c.42 0 .84-.09 1.25-.16l.15.9c-.44.11-.88.11-1.32.17zm-4-.1c-.44-.06-.88-.14-1.31-.24l.2-.89c.41.09.82.17 1.24.23l-.13.9zm6.63-.35l-.22-.88c.41-.1.81-.22 1.21-.36l.29.87c-.42.14-.85.26-1.28.37zm-9.23-.23c-.43-.13-.85-.28-1.26-.44l.33-.85c.4.16.79.29 1.2.42l-.27.87zm11.75-.62l-.35-.83c.387-.173.767-.353 1.14-.54l.42.8c-.394.21-.797.4-1.21.57zm-14.23-.36c-.4-.2-.79-.41-1.18-.63l.46-.79c.37.22.74.41 1.12.6l-.4.82zm16.6-.87l-.48-.77 1-.71.54.73c-.32.22-.68.51-1.01.75h-.05zM8.05 32c-.37-.25-.72-.52-1.06-.8l.57-.71c.33.27.67.53 1 .77l-.51.74zm21-1.1l-.59-.69c.31-.27.62-.56.92-.86l.64.64c-.27.36-.59.66-.93.95l-.04-.04zM6 30.35c-.32-.313-.63-.647-.93-1l.68-.61c.278.318.572.622.88.91l-.63.7zM31 29l-.69-.58c.27-.32.53-.66.78-1l.74.53c-.3.4-.58.75-.83 1.05zm-26.74-.68c-.27-.36-.53-.72-.77-1.09l.76-.5c.23.36.47.7.73 1l-.72.59zm28.3-1.48l-.77-.47c.22-.36.42-.73.61-1.11l.81.41c-.21.44-.46.83-.69 1.21l.04-.04zm-29.75-.76c-.21-.39-.41-.79-.59-1.2l.83-.37c.17.39.36.77.56 1.14l-.8.43zm31-1.62l-.84-.35c.16-.39.3-.78.43-1.19l.87.28c-.22.47-.37.89-.54 1.3l.08-.04zm-32-.82c-.15-.42-.28-.84-.39-1.28l.88-.23c.1.41.23.81.37 1.21l-.86.3zM34.55 22l-.89-.21c.1-.41.18-.82.24-1.24l.9.14c-.07.4-.15.83-.25 1.31zM1 21.1c-.08-.43-.15-.87-.19-1.32l.9-.09c0 .42.1.84.18 1.25L1 21.1zm34-1.78l-.91-.07v-1.26-.88l.91-.05V19.32zM.77 18.45V18v-.87h.9v1.27l-.9.05zm1-2.55l-.9-.11c.06-.45.13-.89.22-1.32l.89.19c-.09.41-.16.82-.22 1.24h.01zm32.2-.05c-.06-.42-.13-.83-.22-1.24l.89-.19c.1.43.17.87.23 1.31l-.9.12zM2.29 13.43l-.87-.25c.12-.43.26-.86.42-1.27l.85.32c-.16.39-.29.77-.41 1.2h.01zm31.15-.05c-.12-.4-.25-.8-.4-1.19l.85-.33c.16.42.3.84.43 1.27l-.88.25zM3.19 11.07l-.83-.39c.19-.4.4-.8.62-1.18l.79.45c-.22.36-.41.74-.59 1.12h.01zm29.35 0c-.18-.39-.37-.76-.58-1.12l.78-.46c.23.39.43.78.62 1.19l-.82.39zM4.44 8.91l-.75-.51c.25-.36.51-.72.79-1.07l.71.57c-.27.29-.52.63-.76.97l.01.04zm26.84 0c-.23-.35-.49-.69-.75-1l.71-.57c.28.35.54.71.79 1.07l-.75.5zM6 6.9l-.67-.62c.31-.32.63-.64.95-.94l.62.67c-.3.29-.6.58-.9.89zm23.68 0c-.29-.31-.59-.6-.9-.89l.61-.67c.33.3.65.61.95.93l-.66.63zM7.87 5.2l-.56-.72c.347-.267.707-.527 1.08-.78l.51.75c-.35.24-.7.49-1.03.75zm19.95 0c-.33-.26-.67-.51-1-.74l.5-.76c.373.253.733.513 1.08.78l-.58.72zM10 3.8L9.55 3c.39-.21.79-.41 1.19-.6l.38.83c-.383.17-.757.36-1.12.57zm15.73 0c-.363-.21-.737-.4-1.12-.57l.37-.83a12 12 0 0 1 1.19.6l-.44.8zm-13.44-1l-.32-.86c.42-.15.84-.29 1.27-.41l.25.88a12 12 0 0 0-1.22.34l.02.05zm11.14 0c-.387-.14-.787-.27-1.2-.39l.24-.87c.43.12.86.25 1.27.4l-.31.86zm-8.71-.67l-.18-.89 1.32-.21.11.91c-.44-.02-.86.06-1.27.12l.02.07zm6.28 0c-.41-.08-.83-.14-1.25-.19l.1-.9c.45 0 .89.12 1.32.2l-.17.89zm-3.77-.28V.94h1.34v.91c-.487-.073-.94-.1-1.36-.08l.02.08z"/>
        </g>
        <path fill="url(#q)" fill-rule="nonzero" d="M56.34 224.68v-.77a3.45 3.45 0 0 1 .43-1.74 5.44 5.44 0 0 1 1.56-1.57 6.32 6.32 0 0 0 1.44-1.27 1.86 1.86 0 0 0 .35-1.09 1.18 1.18 0 0 0-.5-1 2.34 2.34 0 0 0-1.39-.35 8 8 0 0 0-3.56 1l-1.13-2.27a9.84 9.84 0 0 1 4.92-1.3 5.21 5.21 0 0 1 3.4 1 3.36 3.36 0 0 1 1.27 2.74 3.75 3.75 0 0 1-.52 2 7.52 7.52 0 0 1-2 1.87 5.88 5.88 0 0 0-1.24 1.07 1.75 1.75 0 0 0-.27 1v.63l-2.76.05zm-.34 3.55a1.76 1.76 0 0 1 .47-1.32 1.93 1.93 0 0 1 1.36-.44c.488-.031.97.13 1.34.45.328.355.498.828.47 1.31a1.75 1.75 0 0 1-.48 1.3 1.79 1.79 0 0 1-1.33.47 1.86 1.86 0 0 1-1.35-.46 1.73 1.73 0 0 1-.48-1.31z"/>
        <g opacity=".38" transform="translate(247 49)">
            <ellipse cx="40.125" cy="44.773" fill="url(#r)" rx="24.4" ry="36.54" transform="rotate(-29.92 40.125 44.773)"/>
            <path fill="url(#s)" fill-rule="nonzero" d="M30.21 78.58c-.71-.54-1.41-1.09-2.11-1.67l.64-1.71c.65.55 1.32 1.08 2 1.59l.43.31-.51 1.81-.45-.33zm3.06 2.13l.37-1.9c.84.54 1.68 1.04 2.52 1.5l-.23 2c-.88-.5-1.77-1.03-2.66-1.6zm-7.65-6c-.82-.77-1.62-1.56-2.4-2.38l.89-1.46c.74.77 1.5 1.52 2.27 2.25l-.76 1.59zm13 8.94l.09-2.06c.85.4 1.7.75 2.55 1.06l.06 2.12c-.91-.33-1.8-.7-2.71-1.12h.01zM20.93 69.79c-.75-.89-1.48-1.79-2.18-2.71l1.13-1.18c.67.87 1.36 1.72 2.07 2.56l-1.02 1.33zM44 85.65l-.21-2.17c.85.23 1.69.43 2.52.59l.35 2.2c-.89-.17-1.78-.37-2.66-.62zM16.7 64.24c-.66-1-1.3-2-1.91-3l1.35-.87c.57.94 1.18 1.88 1.8 2.8l-1.24 1.07zm32.58 22.41l-.48-2.23c.81.08 1.63.12 2.42.12l.63 2.23c-.85 0-1.71-.04-2.58-.12h.01zM13 58.23c-.56-1-1.09-2.09-1.59-3.14l1.52-.55c.48 1 1 2 1.51 3l-1.44.69zm41.3 28.4l-.76-2.22a21.42 21.42 0 0 0 2.29-.36l.88 2.2a23.72 23.72 0 0 1-2.38.38h-.03zM10 51.89a71.38 71.38 0 0 1-1.23-3.24l1.66-.21c.36 1 .75 2 1.17 3.07l-1.6.38zm49 33.72l-1-2.16c.71-.25 1.41-.53 2.08-.84l1.12 2.12c-.7.333-1.418.627-2.15.88H59zM7.7 45.38c-.32-1.09-.6-2.18-.85-3.27l1.76.14c.24 1 .5 2.06.8 3.09l-1.71.04zM63.26 83.6l-1.23-2.06a18.91 18.91 0 0 0 1.83-1.29l1.33 2c-.6.486-1.227.937-1.88 1.35h-.05zM6.25 38.86c-.18-1.08-.33-2.15-.44-3.22l1.82.48c.1 1 .24 2 .41 3l-1.79-.26zM67 80.65l-1.42-1.9a21 21 0 0 0 1.52-1.72l1.51 1.81A21.62 21.62 0 0 1 67 80.65zM5.57 32.48v-3.09l1.83.81v2.93l-1.83-.65zm64.49 44.35l-1.59-1.7c.432-.68.83-1.38 1.19-2.1l1.65 1.58a22.71 22.71 0 0 1-1.25 2.22zM5.74 26.39c.09-1 .23-1.93.4-2.88l1.8 1.13c-.16.9-.29 1.81-.38 2.73l-1.82-.98zm66.64 45.83l-1.72-1.45c.31-.78.58-1.59.83-2.43.17-.58.32-1.16.46-1.76l1.78 1.23c-.14.62-.3 1.25-.49 1.86-.24.88-.55 1.73-.86 2.55zM6.74 20.76l.25-.92c.17-.58.35-1.14.55-1.69l1.72 1.41c-.18.52-.35 1-.51 1.6l-.24.88-1.77-1.28zm3.47-3.52L8.53 15.7c.37-.8.76-1.55 1.19-2.28l1.61 1.66c-.4.69-.77 1.41-1.12 2.16zm62.24 46.69c.14-.91.24-1.84.31-2.77l1.83.92c-.07 1-.18 2-.33 2.93l-1.81-1.08zM12.64 13.11l-1.55-1.77a20.67 20.67 0 0 1 1.55-1.88l1.46 1.87a21.29 21.29 0 0 0-1.46 1.78zm60.23 45.18c0-1 0-2-.09-3l1.82.6c.07 1 .1 2.08.1 3.11l-1.83-.71zM15.73 9.75l-1.37-2a19.92 19.92 0 0 1 1.88-1.44l1.26 2a20.93 20.93 0 0 0-1.77 1.44zm56.76 42.58c-.13-1-.3-2-.49-3.06l1.78.25c.21 1.08.38 2.16.52 3.24l-1.81-.43zM19.42 7.24l-1.16-2.1a20.93 20.93 0 0 1 2.16-1l1 2.16a18.63 18.63 0 0 0-2 .94zm51.9 38.94c-.26-1-.55-2.06-.87-3.1l1.7-.09c.34 1.09.64 2.18.92 3.27l-1.75-.08zM23.61 5.64l-.92-2.19a20.27 20.27 0 0 1 2.37-.47l.8 2.22c-.758.1-1.51.246-2.25.44zM69.4 40a55.265 55.265 0 0 0-1.23-3.06l1.57-.44c.46 1.07.9 2.15 1.3 3.23L69.4 40zM28.2 5l-.67-2.22a24 24 0 0 1 2.54 0L30.61 5H28.2zm38.57 28.94c-.513-1-1.033-1.98-1.56-2.94l1.41-.77c.57 1 1.13 2.06 1.64 3.11l-1.49.6zM33.07 5.3l-.4-2.21c.88.14 1.76.32 2.65.54l.25 2.18c-.84-.23-1.67-.4-2.5-.53v.02zM63.5 28.11c-.59-.93-1.21-1.86-1.85-2.76l1.2-1.09c.68 1 1.33 1.93 2 2.92l-1.35.93zM38.11 6.54L38 4.4c.89.3 1.78.65 2.69 1v2.09c-.89-.34-1.69-.67-2.58-.95zM59.66 22.7c-.68-.85-1.38-1.69-2.11-2.51l1-1.37c.76.86 1.5 1.74 2.22 2.65l-1.11 1.23zM43.2 8.7l.18-2c.88.46 1.77 1 2.66 1.5l-.31 1.94c-.85-.5-1.73-.98-2.53-1.42V8.7zm12.14 9.12c-.74-.76-1.51-1.49-2.3-2.2l.72-1.63c.84.74 1.65 1.52 2.44 2.31l-.86 1.52zm-7.12-6.05l.45-1.85c.87.61 1.73 1.26 2.59 1.94l-.6 1.74c-.8-.6-1.66-1.23-2.44-1.81v-.02z"/>
        </g>
        <path fill="url(#t)" fill-rule="nonzero" d="M290.94 100.67l-7.55-3.75-.08-19.41 9.87 4.91-2.24 18.25zm-9 2.68c.07-1.21.54-1.94 1.4-2.2.86-.26 2.07 0 3.64.78a9.15 9.15 0 0 1 3.48 2.76 5.24 5.24 0 0 1 1 3.41c-.07 1.2-.53 1.92-1.4 2.18a5.12 5.12 0 0 1-3.54-.73 9.52 9.52 0 0 1-3.49-2.77 5.14 5.14 0 0 1-1.11-3.43h.02z"/>
        <path fill="url(#u)" d="M392 238.46a.58.58 0 0 0-.23-.08c-.19 0-.34.11-.34.4l-.05 13-.06 12.89c.001.408.213.786.56 1a.46.46 0 0 0 .21.08.39.39 0 0 0 .18 0l4.18-2.42a.39.39 0 0 1 .18 0 .54.54 0 0 1 .22.08c.246.158.427.4.51.68l3.8 12.27c.085.28.266.52.51.68a.51.51 0 0 0 .22.07l3.77.29c.21 0 .33-.16.33-.41a1 1 0 0 0-.05-.27l-3.8-12.28a1 1 0 0 1-.05-.28c0-.25.14-.41.34-.4a.6.6 0 0 1 .2.07l5.92 3.17a.74.74 0 0 0 .21.07c.2 0 .33-.15.33-.39a1.11 1.11 0 0 0-.18-.58l-8.24-13.51-8.3-13.61a1 1 0 0 0-.37-.39v-.13z"/>
        <path fill="url(#v)" d="M416.24 217.33l-33.64-19.42a4.4 4.4 0 0 1-1.83-3.5v-56.13c0-1.35.82-2 1.83-1.38l33.64 19.42a4.38 4.38 0 0 1 1.83 3.49V216c0 1.29-.82 1.91-1.83 1.33z" opacity=".2"/>
        <path fill="url(#w)" d="M393.14 177.44l-36.61-21.14a4.75 4.75 0 0 1-2-3.8V91.42c0-1.47.89-2.14 2-1.51l36.61 21.14a4.76 4.76 0 0 1 2 3.8v61.08c-.01 1.47-.9 2.14-2 1.51z" opacity=".34"/>
        <path fill="url(#x)" d="M378.63 202.9L342 181.77a4.78 4.78 0 0 1-2-3.81v-61.08c0-1.46.89-2.14 2-1.5l36.6 21.13a4.78 4.78 0 0 1 2 3.8v61.09c.02 1.46-.87 2.14-1.97 1.5z" opacity=".34"/>
        <g style="mix-blend-mode:screen">
            <path fill="url(#y)" d="M41.12 41.24V87c0 1.47-.89 2.15-2 1.52L2.51 67.38a4.76 4.76 0 0 1-2-3.81V2.44c0-1.47.89-2.14 2-1.5l23 13.27v15a5.84 5.84 0 0 0 2.63 4.57l12.98 7.46z" transform="translate(325 143)"/>
            <path fill="url(#z)" d="M41.12 41.24l-13-7.49a5.84 5.84 0 0 1-2.63-4.57v-15l15.63 27.06z" transform="translate(325 143)"/>
        </g>
        <g opacity=".34">
            <path fill="url(#A)" d="M23.83 14.17c0 .45-.27.66-.61.46L1.07 1.85a.73.73 0 0 1-.36-.62V.82c0-.46.28-.66.62-.47l22.15 12.79a.71.71 0 0 1 .35.62v.41z" transform="translate(362 111)"/>
            <path fill="url(#B)" d="M23.83 22.77c0 .45-.27.66-.61.46L1.07 10.45a.72.72 0 0 1-.36-.62v-.41c0-.45.28-.66.62-.47l22.15 12.79a.71.71 0 0 1 .35.62v.41z" transform="translate(362 111)"/>
        </g>
        <path stroke="#FFF" d="M330.73 201.76l26.38-15.83M357.04 214.15l-26.23-40.6"/>
        <g fill-rule="nonzero" opacity=".3">
            <path fill="url(#C)" d="M42.86 74.53a33.7 33.7 0 0 1-11.7-12.34c-6.48-11.24-6.38-23.25.08-26.93 3.23-1.85 7.48-1.27 11.74 1.19a33.62 33.62 0 0 1 11.7 12.34c6.47 11.22 6.38 23.25-.08 26.93-3.24 1.85-7.49 1.26-11.74-1.19zm6-64.74l-11.61-6.7c-1.46-.84-2.64-.15-2.65 1.52v5.15c0 1.33-.76 2.07-1.86 1.83a23.3 23.3 0 0 0-5.79-.59 2.37 2.37 0 0 1-1.22-.36 5.3 5.3 0 0 1-1.86-2L20.7 3.2a5.32 5.32 0 0 0-1.87-2A1.86 1.86 0 0 0 17 1L8.77 5.69c-1 .59-1.05 2.51 0 4.3l3.16 5.48c.81 1.4 1 3 .46 3.81a23.28 23.28 0 0 0-2.4 5.27c-.35 1.06-1.38 1.33-2.52.67l-4.5-2.59c-1.45-.84-2.64-.17-2.65 1.51v13.33a5.82 5.82 0 0 0 2.64 4.58l4.47 2.58a5.86 5.86 0 0 1 2.52 3.58 69.06 69.06 0 0 0 2.38 8c.52 1.48.33 2.8-.5 3.27l-3.17 1.81c-1 .59-1 2.52 0 4.3l8.17 14.15a5.38 5.38 0 0 0 1.88 2 1.87 1.87 0 0 0 1.87.19l3.18-1.81a1.9 1.9 0 0 1 1.86.19c.46.262.873.6 1.22 1a70.07 70.07 0 0 0 5.78 6.08 5.86 5.86 0 0 1 1.84 4v5.15a5.82 5.82 0 0 0 2.64 4.57l11.6 6.69c1.47.85 2.65.17 2.66-1.51v-5.14c0-1.32.76-2.07 1.86-1.82a23.76 23.76 0 0 0 5.79.58 2.37 2.37 0 0 1 1.22.36 5.3 5.3 0 0 1 1.86 2l3.15 5.45a5.38 5.38 0 0 0 1.88 2 1.87 1.87 0 0 0 1.87.19l8.23-4.7c1-.58 1-2.51 0-4.3L74 95.47c-.81-1.4-1-3-.46-3.81a23.63 23.63 0 0 0 2.41-5.26c.35-1.07 1.37-1.34 2.52-.68l4.48 2.59c1.46.84 2.65.17 2.65-1.52V73.47a5.8 5.8 0 0 0-2.6-4.58l-4.48-2.58A5.83 5.83 0 0 1 76 62.72a72.56 72.56 0 0 0-2.38-8c-.53-1.48-.33-2.8.49-3.27l3.17-1.81c1-.59 1-2.51 0-4.31l-8.17-14.15a5.4 5.4 0 0 0-1.87-2 1.89 1.89 0 0 0-1.88-.19l-3.17 1.81a1.9 1.9 0 0 1-1.87-.19 4.6 4.6 0 0 1-1.21-1 70.29 70.29 0 0 0-5.78-6.09 5.87 5.87 0 0 1-1.85-4v-5.14a5.86 5.86 0 0 0-2.64-4.58l.02-.01z" style="mix-blend-mode:screen" transform="translate(157 29)"/>
            <path fill="url(#D)" d="M52.1 90.08c-6.93-4-13.52-12.49-16.35-22-3.8-12.74.69-22 9.63-21.13a17.3 17.3 0 0 1 6.81 2.36c6.92 4 13.52 12.5 16.35 22 3.72 12.53-.56 22-9.63 21.14a17.32 17.32 0 0 1-6.81-2.37zm14.14-71.65c-1.05-.61-2.06-.47-2.49.47l-1.51 3.32c-.43.92-1.41 1.11-2.47.5a4.81 4.81 0 0 1-.41-.27 67.28 67.28 0 0 0-7.11-4.76 54.18 54.18 0 0 0-7.17-3.48 2.76 2.76 0 0 1-.43-.2 6 6 0 0 1-2.46-3.32l-1.5-5.06a6 6 0 0 0-2.49-3.34 2.67 2.67 0 0 0-1-.36l-10.66-1c-1.38-.15-2 1.29-1.46 3.19l1.5 5.06c.47 1.58.1 2.9-.9 3.15a21.55 21.55 0 0 0-10.11 5.82 1.73 1.73 0 0 1-2.16 0 4.71 4.71 0 0 1-1-.83l-3.64-3.83a4.89 4.89 0 0 0-1-.82c-1.06-.61-2.07-.47-2.5.48l-4.42 9.7c-.57 1.26.08 3.44 1.45 4.88l3.63 3.82a5.59 5.59 0 0 1 1.62 4.24 59.6 59.6 0 0 0 0 16.42c.2 1.53-.48 2.52-1.62 2.4l-3.63-.35c-1.38-.14-2 1.3-1.46 3.2l4.38 14.77a6 6 0 0 0 2.48 3.34 2.48 2.48 0 0 0 1 .35l3.63.36a2.5 2.5 0 0 1 1 .36 5.69 5.69 0 0 1 2.17 2.52A109.5 109.5 0 0 0 25.6 96.6a4.65 4.65 0 0 1 .88 4.17l-1.52 3.3c-.57 1.26.08 3.45 1.46 4.89L37 120.11a5 5 0 0 0 1 .83c1.06.61 2.06.47 2.49-.48l1.51-3.31c.42-.92 1.4-1.11 2.47-.49l.41.27a66.44 66.44 0 0 0 7.09 4.75 53.37 53.37 0 0 0 7.2 3.49c.149.054.293.121.43.2a6 6 0 0 1 2.46 3.33l1.49 5a6 6 0 0 0 2.49 3.34 2.67 2.67 0 0 0 1 .36l10.66 1.05c1.38.14 2-1.3 1.46-3.2l-1.49-5c-.48-1.6-.1-2.9.9-3.16a21.78 21.78 0 0 0 10.12-5.82 1.7 1.7 0 0 1 2.14 0c.37.234.706.516 1 .84l3.63 3.82c.294.319.63.595 1 .82 1.05.61 2.06.47 2.49-.47l4.43-9.71c.57-1.24-.09-3.43-1.46-4.87l-3.63-3.83a5.55 5.55 0 0 1-1.62-4.23 59.36 59.36 0 0 0 0-16.44c-.2-1.52.48-2.51 1.62-2.4l3.64.36c1.37.13 2-1.3 1.46-3.2L99 67.18a6 6 0 0 0-2.48-3.33 2.55 2.55 0 0 0-1-.36l-3.64-.36a2.6 2.6 0 0 1-1-.36 5.63 5.63 0 0 1-2.16-2.51 108.65 108.65 0 0 0-10.1-17.43 4.61 4.61 0 0 1-.87-4.17l1.51-3.31c.57-1.26-.08-3.43-1.45-4.88l-10.64-11.2a4.65 4.65 0 0 0-1-.82l.07-.02z" style="mix-blend-mode:screen" transform="translate(212 126)"/>
        </g>
        <path d="M0 0h500v500H0z"/>
        <path fill="#005479" d="M263.82 354.14l12.68-7.36-.03 9.91-12.68 7.37z"/>
        <path fill="#005479" d="M258.17 360.81l12.68-7.37-.04 13.46-12.68 7.37z"/>
        <path fill="url(#E)" d="M258.2 350.9l12.68-7.37 5.62 3.25-12.68 7.36z"/>
        <path fill="#005479" d="M258.29 318.05l12.68-7.37-.09 32.85-12.68 7.37z"/>
    </g>
</svg>
