<svg xmlns="http://www.w3.org/2000/svg" xmlns:xlink="http://www.w3.org/1999/xlink" width="436" height="77" viewBox="0 0 436 77">
    <defs>
        <path id="a" d="M0 76.635h435.614V0H0z"/>
    </defs>
    <g fill="none" fill-rule="evenodd">
        <path fill="#000" d="M200.84 45.506c0 5.324-1.876 6.564-11.575 6.564h-3.598c-6.883 0-10.249-1.71-10.249-7.422v-3.76c0-5.712 3.366-7.425 10.25-7.425h3.597c9.7 0 11.574 1.25 11.574 6.567v5.476zm-1.486-23.312h-22.448c-7.664 0-16.502 2.664-16.502 15.81v9.533c0 13.136 8.838 15.8 16.502 15.8h22.448c7.666 0 16.502-2.664 16.502-15.8v-9.533c0-13.146-8.836-15.81-16.502-15.81zM257.23 45.116c0 4.448-.705 6.954-7.901 6.954h-8.84c-5.944 0-9.068-1.32-9.068-7.344v-3.922c0-6.012 3.124-7.339 9.069-7.339h8.839c7.196 0 7.902 2.501 7.902 6.96v4.691zm14.547-5.949c0-10.166-2.35-16.973-21.348-16.973h-4.462c-6.175 0-12.511 1.727-13.454 7.981h-.157V6.087h-15.012v56.62h14.077V55.36h.156c1.639 4.923 5.396 7.98 14.47 7.98h4.382c18.999 0 21.348-6.808 21.348-16.977v-7.196z"/>
        <path fill="#000" d="M273.033 62.4c0 2.584-1.093 3.91-3.988 3.91-.39 0-.864-.078-1.564-.157V76.24c1.564.08 3.832.394 5.944.394 8.839 0 14.62-2.737 14.62-11.344V22.822h-15.012V62.4zM326.64 49.417c0 2.343-.389 4.533-8.515 4.533h-4.622c-6.25 0-9.228-1.177-9.228-5.396v-2.425h35.267c.05 1.166.156 2.274.311 3.288h.011-13.225zm-11.415-17.831c8.763 0 10.95.855 10.95 5.628h-21.9c0-4.773 1.171-5.628 10.95-5.628zm107.081 13.532v2.656c0 3.669-1.334 4.762-6.186 4.762-3.595 0-5.788-.613-5.788-3.588v-15.33h12.132V22.826h-12.132v-9.39h-15.01v9.39h-7.509v2.506c-3.08-2.117-7.49-3.138-12.993-3.138h-16.894c-8.976 0-15.639 2.227-17.742 11.358v-.003c-1.832-8.954-8.589-11.355-21.984-11.355h-10.48c-10.952 0-18.457 3.287-18.457 18.384v3.832c0 17.047 10.477 18.927 20.408 18.927h11.264c10.228 0 18.728-1.943 19.69-10.52v-.004l.001.004c2.975 9.288 11.287 10.52 19.261 10.52h15.322c8.611 0 17.527-3.052 17.527-13.773v-3.516h-14.552v.947c0 3.67-3.827 4.612-8.055 4.612h-7.662c-4.693 0-7.978-1.574-7.978-6.725v-5.325c0-4.381 2.971-6.094 9.231-6.094h5.788c6.568 0 8.676 1.482 8.676 5.551h14.552v-3.606c0-.614-.037-1.211-.1-1.79h2.685v15.799c0 11.024 7.98 13.92 17.204 13.92h5.95c11.96 0 16.967-5.791 16.967-13.378v-4.841h-13.136z"/>
        <path fill="#009BDE" d="M39.887 45.142c0 4.456-.703 6.954-7.9 6.954H23.15c-5.944 0-9.073-1.328-9.073-7.35V40.83c0-6.017 3.13-7.346 9.073-7.346h8.835c7.198 0 7.901 2.502 7.901 6.96v4.698zM33.084 22.22h-4.458c-6.182 0-12.512 1.719-13.454 7.982h-.157V15.678H0v47.052h14.078v-7.346h.153c1.645 4.927 5.396 7.983 14.472 7.983h4.381c19.002 0 21.347-6.818 21.347-16.983v-7.197c0-10.16-2.345-16.968-21.347-16.968z"/>
        <mask id="b" fill="#fff">
            <use xlink:href="#a"/>
        </mask>
        <path fill="#009BDE" d="M56.781 62.734h15.016V22.853H56.781zM141.561 22.22h-4.614c-8.525 0-11.73 2.116-14.233 9.311-2.817-6.255-7.665-9.31-14.784-9.31h-5.708c-7.35 0-12.512 2.742-13.294 8.443h-.157v-7.812H74.457v39.881h15.019V41.694c0-6.176 3.05-7.739 9.463-7.739 9.073 0 10.87 1.247 10.87 6.175v22.603h15.014V40.76c0-5.24 2.973-6.804 10.168-6.804 8.761 0 10.168 1.88 10.168 7.354v21.424h15.019V40.291c0-11.417-4.931-18.07-18.617-18.07M71.798 10.165a7.482 7.482 0 0 0-1.553-4.051c-1.387-1.793-3.537-2.967-5.975-2.967-2.44 0-4.589 1.174-5.977 2.967a7.476 7.476 0 0 0-1.51 3.685c-.042.308-.096.607-.096.931 0 .316.054.614.095.93a7.45 7.45 0 0 0 1.788 4.02 7.56 7.56 0 0 0 3.158 2.16c.798.285 1.644.468 2.542.468.897 0 1.743-.183 2.541-.468a7.564 7.564 0 0 0 3.16-2.16 7.508 7.508 0 0 0 1.827-4.391c.013-.188.057-.367.057-.559 0-.197-.044-.377-.057-.566" mask="url(#b)"/>
        <path fill="#000" d="M428.771 6.254c1.159 0 2.299-.036 2.299-1.336 0-1.07-.891-1.318-1.819-1.318h-1.727v2.654h1.247zm-1.247 4.206h-.943V2.797h2.939c1.728 0 2.494.749 2.494 2.12 0 1.356-.891 1.96-1.924 2.139l2.282 3.404h-1.105l-2.157-3.404h-1.586v3.404zm-4.134-3.831c0 3.17 2.389 5.684 5.596 5.684 3.207 0 5.594-2.513 5.594-5.684 0-3.172-2.387-5.685-5.594-5.685-3.207 0-5.596 2.513-5.596 5.685zm12.224 0c0 3.724-2.886 6.628-6.628 6.628s-6.629-2.904-6.629-6.628c0-3.725 2.887-6.63 6.629-6.63 3.742 0 6.628 2.905 6.628 6.63z" mask="url(#b)"/>
    </g>
</svg>
