<svg xmlns="http://www.w3.org/2000/svg" width="211" height="37" viewBox="0 0 211 37">
    <g fill="none" fill-rule="evenodd">
        <path fill="#FFF" d="M207.502 3.005c.56 0 1.112-.017 1.112-.642 0-.514-.431-.633-.88-.633h-.836v1.275h.604zm-.604 2.021h-.456V1.344h1.422c.836 0 1.207.36 1.207 1.02 0 .65-.431.941-.931 1.026l1.104 1.636h-.535l-1.043-1.636h-.768v1.636zm-2-1.84c0 1.523 1.156 2.73 2.708 2.73 1.552 0 2.707-1.207 2.707-2.73 0-1.525-1.155-2.732-2.707-2.732-1.552 0-2.709 1.207-2.709 2.731zm5.915 0c0 1.789-1.396 3.184-3.207 3.184s-3.208-1.395-3.208-3.185S205.795 0 207.606 0c1.81 0 3.207 1.395 3.207 3.185zm-52.738 20.56h6.4-.005a14.595 14.595 0 0 1-.15-1.58h-17.068v1.165c0 2.027 1.441 2.593 4.466 2.593h2.237c3.933 0 4.12-1.052 4.12-2.178zm-5.523-8.568c-4.733 0-5.3.41-5.3 2.704h10.599c0-2.293-1.059-2.704-5.3-2.704zm51.82 6.502h6.358v2.326c0 3.646-2.423 6.429-8.212 6.429h-2.879c-4.463 0-8.325-1.392-8.325-6.69v-7.59h-1.3c.03.277.049.564.049.86v1.732h-7.043c0-1.955-1.02-2.667-4.198-2.667h-2.801c-3.03 0-4.468.823-4.468 2.928v2.559c0 2.475 1.59 3.231 3.861 3.231h3.708c2.046 0 3.898-.452 3.898-2.216v-.455h7.043v1.69c0 5.151-4.315 6.618-8.482 6.618h-7.415c-3.86 0-7.882-.592-9.322-5.055v-.002.002c-.466 4.121-4.58 5.055-9.53 5.055h-5.45c-4.806 0-9.877-.904-9.877-9.095v-1.841c0-7.255 3.632-8.834 8.933-8.834h5.071c6.483 0 9.753 1.153 10.64 5.456v.001c1.017-4.387 4.242-5.457 8.586-5.457h8.175c2.663 0 4.798.49 6.288 1.508v-1.205h3.634V6.456h7.264v4.512h5.871v5.186h-5.87v7.366c0 1.43 1.06 1.725 2.8 1.725 2.348 0 2.994-.526 2.994-2.289V21.68zm-72.24 8.304V10.967h7.266v20.406c0 4.136-2.798 5.451-7.075 5.451-1.023 0-2.12-.151-2.877-.189v-4.847c.339.038.568.075.757.075 1.4 0 1.93-.637 1.93-1.879zm-7.646-8.305v-2.254c0-2.143-.342-3.344-3.825-3.344h-4.277c-2.877 0-4.389.637-4.389 3.526v1.885c0 2.894 1.512 3.529 4.389 3.529h4.277c3.483 0 3.825-1.204 3.825-3.342zm7.04-2.858v3.457c0 4.887-1.138 8.158-10.332 8.158h-2.12c-4.392 0-6.21-1.469-7.004-3.834h-.075v3.53h-6.813V2.925h7.265V14.5h.076c.457-3.005 3.523-3.835 6.511-3.835h2.16c9.194 0 10.331 3.27 10.331 8.156zm-34.33 3.045v-2.63c0-2.556-.908-3.156-5.602-3.156h-1.741c-3.331 0-4.96.823-4.96 3.567v1.807c0 2.745 1.629 3.567 4.96 3.567h1.741c4.694 0 5.601-.596 5.601-3.155zm-.72-11.201c3.71 0 7.987 1.28 7.987 7.597v4.58c0 6.312-4.277 7.593-7.986 7.593H85.613c-3.709 0-7.986-1.28-7.986-7.593v-4.58c0-6.317 4.277-7.597 7.986-7.597h10.864z"/>
        <path fill="#00AEEF" d="M27.479 30.145V10.98h7.267v19.164h-7.267zm41.029-19.468c6.623 0 9.01 3.198 9.01 8.684v10.784h-7.269V19.85c0-2.631-.68-3.534-4.921-3.534-3.482 0-4.92.751-4.92 3.27v10.559h-7.266V19.283c0-2.368-.87-2.967-5.261-2.967-3.104 0-4.58.751-4.58 3.719v10.11h-7.268V10.98h6.927v3.754h.076c.378-2.74 2.877-4.058 6.434-4.058h2.762c3.446 0 5.792 1.469 7.155 4.474 1.21-3.457 2.762-4.474 6.888-4.474h2.233zM34.746 4.884c.007.091.028.177.028.272 0 .092-.021.178-.028.268a3.594 3.594 0 0 1-.884 2.11c-.409.465-.93.826-1.529 1.038a3.66 3.66 0 0 1-1.23.226c-.434 0-.844-.089-1.23-.226a3.66 3.66 0 0 1-1.528-1.038 3.568 3.568 0 0 1-.865-1.931c-.02-.152-.046-.295-.046-.447 0-.155.026-.3.046-.448a3.66 3.66 0 0 1 3.624-3.196c1.18 0 2.22.564 2.89 1.426a3.58 3.58 0 0 1 .752 1.946zM19.303 21.692v-2.258c0-2.142-.34-3.345-3.823-3.345h-4.276c-2.877 0-4.39.64-4.39 3.53v1.883c0 2.893 1.513 3.531 4.39 3.531h4.276c3.483 0 3.823-1.2 3.823-3.341zm-3.292-11.015c9.196 0 10.33 3.271 10.33 8.153v3.459c0 4.885-1.134 8.16-10.33 8.16h-2.12c-4.393 0-6.208-1.468-7.004-3.836h-.074v3.53H0V7.535h7.267v6.978h.076c.455-3.01 3.519-3.835 6.51-3.835h2.158z"/>
    </g>
</svg>
