<?xml version="1.0" encoding="UTF-8"?>
<svg width="20px" height="20px" viewBox="0 0 20 20" version="1.1" xmlns="http://www.w3.org/2000/svg" xmlns:xlink="http://www.w3.org/1999/xlink">
    <!-- Generator: sketchtool 53 (72520) - https://sketchapp.com -->
    <title>82A0F73C-EF88-4F00-93B8-A0B9B9B34650</title>
    <desc>Created with sketchtool.</desc>
    <defs>
        <path d="M15.3072,0.9795 C15.1692,0.9795 15.0572,0.8675 15.0572,0.7295 C15.0572,0.5915 15.1692,0.4795 15.3072,0.4795 L19.6162,0.4795 C19.7532,0.4795 19.8662,0.5915 19.8662,0.7295 C19.8662,0.8675 19.7532,0.9795 19.6162,0.9795 L15.3072,0.9795 Z M19.6158,4.1123 C19.7538,4.1123 19.8658,4.2243 19.8658,4.3623 C19.8658,4.5003 19.7538,4.6123 19.6158,4.6123 L17.1758,4.6123 C17.0378,4.6123 16.9258,4.5003 16.9258,4.3623 C16.9258,4.2243 17.0378,4.1123 17.1758,4.1123 L19.6158,4.1123 Z M19.6158,7.7451 C19.7538,7.7451 19.8658,7.8571 19.8658,7.9951 C19.8658,8.1331 19.7538,8.2451 19.6158,8.2451 L17.9228,8.2451 C17.7848,8.2451 17.6728,8.1331 17.6728,7.9951 C17.6728,7.8571 17.7848,7.7451 17.9228,7.7451 L19.6158,7.7451 Z M19.6158,11.378 C19.7538,11.378 19.8658,11.49 19.8658,11.628 C19.8658,11.766 19.7538,11.878 19.6158,11.878 L17.1758,11.878 C17.0378,11.878 16.9258,11.766 16.9258,11.628 C16.9258,11.49 17.0378,11.378 17.1758,11.378 L19.6158,11.378 Z M19.6158,15.0118 C19.7538,15.0118 19.8658,15.1238 19.8658,15.2618 C19.8658,15.3998 19.7538,15.5118 19.6158,15.5118 L15.3068,15.5118 C15.1698,15.5118 15.0568,15.3998 15.0568,15.2618 C15.0568,15.1238 15.1698,15.0118 15.3068,15.0118 L19.6158,15.0118 Z M9.4312,11.5078 L9.4312,9.2328 C9.4312,9.0298 9.2682,8.8668 9.0662,8.8668 L7.3682,8.8668 C7.1672,8.8668 7.0032,9.0298 7.0032,9.2328 L7.0032,11.5078 C7.0032,11.7098 7.1672,11.8728 7.3682,11.8728 L9.0662,11.8728 C9.2682,11.8728 9.4312,11.7098 9.4312,11.5078 Z M11.3772,3.9148 C11.5782,3.9148 11.7432,4.0778 11.7432,4.2798 L11.7432,12.4568 C11.7432,12.6578 11.5782,12.8218 11.3772,12.8218 L5.0572,12.8218 C4.8562,12.8218 4.6922,12.6578 4.6922,12.4568 L4.6922,4.2798 C4.6922,4.0778 4.8562,3.9148 5.0572,3.9148 L5.4972,3.9148 C5.7002,3.9148 5.8632,3.7518 5.8632,3.5498 C5.8632,3.3478 6.0272,3.1848 6.2282,3.1848 L10.2062,3.1848 C10.4092,3.1848 10.5722,3.3478 10.5722,3.5498 C10.5722,3.7518 10.7352,3.9148 10.9372,3.9148 L11.3772,3.9148 Z M8.2837,15.4034 C12.3687,15.4034 15.6917,12.0804 15.6917,7.9954 C15.6917,3.9104 12.3687,0.5874 8.2837,0.5874 C4.1987,0.5874 0.8747,3.9104 0.8747,7.9954 C0.8747,12.0804 4.1987,15.4034 8.2837,15.4034 Z M8.2837,0.0874 C12.6507,0.0874 16.1917,3.6284 16.1917,7.9954 C16.1917,12.3634 12.6507,15.9034 8.2837,15.9034 C3.9157,15.9034 0.3747,12.3634 0.3747,7.9954 C0.3747,3.6284 3.9157,0.0874 8.2837,0.0874 Z" id="path-1"></path>
    </defs>
    <g id="Symbols" stroke="none" stroke-width="1" fill="none" fill-rule="evenodd">
        <g id="Components-/-icons-/-solutions-/-Company-info">
            <g id="colors-/-gray-scale-/-404751" transform="translate(0.000000, 2.000000)">
                <mask id="mask-2" fill="white">
                    <use xlink:href="#path-1"></use>
                </mask>
                <use id="Mask" fill="#404751" xlink:href="#path-1"></use>
                <g mask="url(#mask-2)" fill="#404751" id="Rectangle">
                    <g transform="translate(0.000000, -2.000000)">
                        <rect x="0" y="0" width="20" height="20"></rect>
                    </g>
                </g>
            </g>
        </g>
    </g>
</svg>