<?xml version="1.0" encoding="UTF-8"?>
<svg width="20px" height="20px" viewBox="0 0 20 20" version="1.1" xmlns="http://www.w3.org/2000/svg" xmlns:xlink="http://www.w3.org/1999/xlink">
    <!-- Generator: sketchtool 53 (72520) - https://sketchapp.com -->
    <title>254F8CEA-401B-4036-94FF-9F28DD723833</title>
    <desc>Created with sketchtool.</desc>
    <defs>
        <path d="M18.1286,3.9866 C19.1996,5.0566 19.8656,7.3566 19.8656,9.9876 C19.8656,12.4636 19.2586,14.7006 18.2816,15.8256 C18.1726,15.9506 18.0206,16.0146 17.8666,16.0146 C17.7386,16.0146 17.6116,15.9696 17.5076,15.8806 C17.2786,15.6816 17.2546,15.3356 17.4526,15.1066 C18.2526,14.1856 18.7686,12.1766 18.7686,9.9876 C18.7686,7.3546 18.0586,5.4656 17.3546,4.7626 C17.1396,4.5486 17.1396,4.2026 17.3536,3.9876 C17.5676,3.7726 17.9156,3.7726 18.1286,3.9866 Z M8.485,14.5013 C10.704,15.1193 13.159,16.1553 15.176,17.9083 C15.036,15.2563 14.964,12.5143 14.964,9.7463 C14.964,6.9793 15.036,4.2373 15.176,1.5863 C10.917,5.2693 4.749,5.8093 2.911,5.8873 L2.903,5.8873 L2.903,13.5923 C2.916,13.6013 2.926,13.6063 2.933,13.6093 C3.375,13.6283 4.076,13.6753 4.94,13.7853 L4.937,13.7763 L5.343,13.8283 C6.351,13.9583 7.35,14.1373 8.312,14.3593 L8.442,14.3893 L8.485,14.5013 Z M9.008,17.2903 L8.106,14.9133 C7.247,14.6853 6.429,14.5183 5.693,14.3993 L7.342,18.9823 L9.008,17.2903 Z M0.542,11.5763 L2.403,11.5763 L2.403,7.9163 L0.542,7.9163 L0.542,11.5763 Z M16.386,13.5933 C16.211,13.7943 15.783,14.0013 15.523,13.9973 C15.564,15.5133 15.625,17.0133 15.71,18.4813 L15.741,19.0313 L15.238,18.6393 C13.321,16.8253 10.918,15.7403 8.707,15.0853 L9.59,17.4133 L7.141,19.8983 L5.131,14.3153 C4.16,14.1813 3.371,14.1263 2.889,14.1053 C2.703,14.0993 2.536,13.9453 2.472,13.8793 L2.403,13.8073 L2.403,12.0763 L0.042,12.0763 L0.042,7.4163 L2.403,7.4163 L2.403,5.6263 L2.492,5.5513 C2.613,5.4483 2.747,5.3943 2.889,5.3873 C4.746,5.3093 11.121,4.7493 15.233,0.8583 L15.297,0.8073 L15.73,0.4733 L15.71,1.0113 C15.612,2.7073 15.553,4.4503 15.513,6.2093 C15.745,6.0893 16.066,6.1243 16.274,6.3293 C16.977,7.0223 17.626,8.4013 17.626,10.0213 C17.626,11.5383 17.019,12.8743 16.386,13.5933 Z" id="path-1"></path>
    </defs>
    <g id="Symbols" stroke="none" stroke-width="1" fill="none" fill-rule="evenodd">
        <g id="Components-/-icons-/-solutions-/-Quickpress">
            <g id="colors-/-gray-scale-/-404751">
                <mask id="mask-2" fill="white">
                    <use xlink:href="#path-1"></use>
                </mask>
                <use id="Mask" fill="#404751" xlink:href="#path-1"></use>
                <g mask="url(#mask-2)" fill="#404751" id="Rectangle">
                    <rect x="0" y="0" width="20" height="20"></rect>
                </g>
            </g>
        </g>
    </g>
</svg>