<?xml version="1.0" encoding="UTF-8"?>
<svg width="20px" height="20px" viewBox="0 0 20 20" version="1.1" xmlns="http://www.w3.org/2000/svg" xmlns:xlink="http://www.w3.org/1999/xlink">
    <!-- Generator: sketchtool 53 (72520) - https://sketchapp.com -->
    <title>89DCD38A-ACBA-4C6E-AF8F-8B959F751693</title>
    <desc>Created with sketchtool.</desc>
    <defs>
        <path d="M14.7375,10.0931 C15.3095,8.6141 14.5755,6.9521 13.0975,6.3801 C12.7775,6.2571 12.4505,6.2111 12.1265,6.2051 L12.1265,11.9171 C13.2525,11.8911 14.3055,11.2081 14.7375,10.0931 Z M11.6265,17.0131 L11.6265,0.9781 L0.7825,2.8451 L0.7825,15.1461 L11.6265,17.0131 Z M17.7505,9.7711 L19.7995,11.5361 C19.7505,11.6901 19.7075,11.8431 19.6485,11.9941 C19.5895,12.1461 19.5185,12.2881 19.4515,12.4351 L16.7475,12.3601 C16.4165,12.8301 16.0215,13.2401 15.5785,13.5831 L15.7795,16.2831 C15.4935,16.4311 15.2005,16.5601 14.8995,16.6721 L13.0395,14.7061 C12.7395,14.7581 12.4335,14.7781 12.1265,14.7801 L12.1265,17.6071 L0.2825,15.5681 L0.2825,2.4231 L0.4905,2.3881 L12.1265,0.3841 L12.1265,3.3391 C12.3415,3.3411 12.5575,3.3411 12.7755,3.3681 L14.5415,1.3181 C14.6935,1.3671 14.8465,1.4111 14.9995,1.4701 C15.1505,1.5291 15.2935,1.6001 15.4395,1.6661 L15.3645,4.3701 C15.8355,4.7021 16.2455,5.0961 16.5885,5.5391 L19.2885,5.3381 C19.4345,5.6241 19.5645,5.9171 19.6765,6.2191 L17.7105,8.0791 C17.8055,8.6311 17.8215,9.2001 17.7505,9.7711 Z M5.9885,6.6732 L5.0885,9.5022 L7.5655,9.5022 L6.6755,6.6732 C6.5595,6.3162 6.4405,5.8762 6.3185,5.3572 C6.2415,5.7552 6.1325,6.1942 5.9885,6.6732 Z M4.7735,10.4572 L3.8305,13.3602 L2.9295,13.3602 L5.9575,4.1942 L6.7065,4.1942 L9.7175,13.3602 L8.7965,13.3602 L7.8425,10.4572 L4.7735,10.4572 Z" id="path-1"></path>
    </defs>
    <g id="Symbols" stroke="none" stroke-width="1" fill="none" fill-rule="evenodd">
        <g id="Components-/-icons-/-solutions-/-Company-Admin">
            <g id="colors-/-gray-scale-/-404751" transform="translate(0.000000, 1.000000)">
                <mask id="mask-2" fill="white">
                    <use xlink:href="#path-1"></use>
                </mask>
                <use id="Mask" fill="#404751" xlink:href="#path-1"></use>
                <g mask="url(#mask-2)" fill="#404751" id="Rectangle">
                    <g transform="translate(0.000000, -1.000000)">
                        <rect x="0" y="0" width="20" height="20"></rect>
                    </g>
                </g>
            </g>
        </g>
    </g>
</svg>