<svg xmlns="http://www.w3.org/2000/svg" xmlns:xlink="http://www.w3.org/1999/xlink" width="53" height="53" viewBox="0 0 53 53">
    <defs>
        <path id="a" d="M11.023 32.35v-8.34h5.236v8.34h-5.236zm8.521 0V13.716h5.236V32.35h-5.236zm8.43 0V20.728h5.237V32.35h-5.236zm8.519 0V13.54h5.233v18.81h-5.233zm15.13-17.77c.244-1.914-.286-4.866-2.559-5.91l1.171 13.015 1.387-7.105zm-5.264 24.147a4.06 4.06 0 0 0 3.677-4.403l-.711-7.914-.01-.002.007-.035-1.674-18.597a4.031 4.031 0 0 0-1.44-2.75 4.077 4.077 0 0 0-2.963-.926L6.597 7.398a4.015 4.015 0 0 0-2.75 1.44 4.033 4.033 0 0 0-.926 2.963l2.39 26.55c.2 2.229 2.207 3.898 4.404 3.677l36.644-3.3zm-4.538 3.97c1.88.215 3.65-.903 4.32-2.612l-13.682 1.23 9.362 1.381zM1.36 33.12c-.24 1.805.825 3.554 2.521 4.235L2.764 24.885 1.361 33.12zM7.707 4.188A3.993 3.993 0 0 0 6.36 6.094c.04-.003.075-.019.118-.021L21.33 4.736l-10.57-1.363c-1.124-.138-2.202.15-3.054.815zm41.184 3.024c3.522 1.017 4.374 5.01 4.044 7.581l-2.271 11.641.697 7.77c.232 2.572-1.395 4.885-3.764 5.623-.575 2.457-2.79 4.224-5.3 4.224a5.99 5.99 0 0 1-.652-.037l-14.849-2.188-16.962 1.528a5.354 5.354 0 0 1-3.937-1.23c-1.006-.841-1.634-1.997-1.84-3.277l-.449-.144C1.207 37.857-.287 35.43.046 32.921l1.699-9.969.42-3.615.099.011-.668-7.427a5.345 5.345 0 0 1 1.23-3.937A5.353 5.353 0 0 1 4.914 6.48a5.33 5.33 0 0 1 5.934-4.438l16.618 2.143 15.658-1.41c1.43-.13 2.83.31 3.935 1.23.987.825 1.61 1.959 1.831 3.207z"/>
    </defs>
    <g fill="none" fill-rule="evenodd">
        <path d="M0 0h53v53H0z"/>
        <mask id="b" fill="#fff">
            <use xlink:href="#a"/>
        </mask>
        <use fill="#3C4551" xlink:href="#a"/>
        <g fill="#404751" mask="url(#b)">
            <path d="M0 0h53v53H0z"/>
        </g>
    </g>
</svg>
