<?xml version="1.0" encoding="UTF-8"?>
<svg width="20px" height="20px" viewBox="0 0 20 20" version="1.1" xmlns="http://www.w3.org/2000/svg" xmlns:xlink="http://www.w3.org/1999/xlink">
    <!-- Generator: sketchtool 53 (72520) - https://sketchapp.com -->
    <title>798017C6-1965-4C3E-9997-5FC0014840A5</title>
    <desc>Created with sketchtool.</desc>
    <defs>
        <path d="M15.1188,10.4971 L15.1188,4.1931 C15.1188,3.6961 14.8098,3.2551 14.3508,3.0971 L8.2078,0.9761 C8.0918,0.9361 7.9718,0.9161 7.8508,0.9161 C7.7308,0.9161 7.6108,0.9361 7.4938,0.9761 L1.3508,3.0971 C1.1278,3.1751 0.9378,3.3171 0.8048,3.5101 C0.6588,3.7101 0.5838,3.9451 0.5838,4.1931 L0.5838,10.4971 C0.5838,13.1911 1.9938,15.7031 4.2648,17.0511 L7.2928,18.8461 C7.6378,19.0511 8.0648,19.0521 8.4098,18.8451 L11.4368,17.0511 C13.7088,15.7021 15.1188,13.1911 15.1188,10.4971 Z M14.5148,2.6241 C15.1758,2.8521 15.6188,3.4821 15.6188,4.1931 L15.6188,10.4971 C15.6188,13.3671 14.1148,16.0431 11.6928,17.4801 L8.6658,19.2741 C8.4148,19.4251 8.1328,19.5001 7.8508,19.5001 C7.5688,19.5001 7.2878,19.4251 7.0368,19.2751 L4.0098,17.4801 C1.5888,16.0431 0.0838,13.3671 0.0838,10.4971 L0.0838,4.1931 C0.0838,3.8391 0.1918,3.5021 0.3968,3.2201 C0.5898,2.9441 0.8628,2.7371 1.1868,2.6241 L7.3318,0.5031 C7.6748,0.3891 8.0308,0.3891 8.3698,0.5031 L14.5148,2.6241 Z M12.903,10.8887 C12.926,10.9057 12.951,10.9207 12.967,10.9457 C13.127,11.1287 13.159,11.3457 13.159,11.5057 C13.159,11.5547 13.159,11.5947 13.151,11.6267 L13.151,11.6347 C13.151,11.6587 13.143,11.6747 13.143,11.6907 C13.071,12.1397 12.934,12.5647 12.751,12.9657 C12.678,13.1257 12.597,13.2867 12.51,13.4397 C11.917,11.6747 10.882,10.9127 10.457,10.6637 C10.585,10.5837 10.714,10.5287 10.858,10.4887 C11.042,10.6087 11.266,10.6797 11.5,10.6797 C11.748,10.6797 11.972,10.6087 12.157,10.4797 C12.429,10.5687 12.686,10.7037 12.903,10.8887 Z M11.5143,10.4775 C10.9183,10.4775 10.4353,9.9945 10.4353,9.3985 C10.4353,8.8025 10.9183,8.3225 11.5143,8.3225 C12.1103,8.3225 12.5913,8.8025 12.5913,9.3985 C12.5913,9.9945 12.1103,10.4775 11.5143,10.4775 Z M4.1813,10.4775 C3.5853,10.4775 3.1023,9.9945 3.1023,9.3985 C3.1023,8.8025 3.5853,8.3225 4.1813,8.3225 C4.7773,8.3225 5.2583,8.8025 5.2583,9.3985 C5.2583,9.9945 4.7773,10.4775 4.1813,10.4775 Z M5.3405,10.7207 C4.9795,10.9207 3.8575,11.6577 3.2955,13.5597 C3.1665,13.3667 3.0555,13.1747 2.9665,12.9657 C2.7655,12.5327 2.6295,12.0747 2.5575,11.5947 C2.5495,11.5627 2.5495,11.5227 2.5415,11.4907 L2.5415,11.4827 C2.5335,11.3537 2.5415,11.1207 2.7015,10.9687 C2.7095,10.9527 2.7185,10.9457 2.7345,10.9367 C2.9585,10.7287 3.2315,10.5757 3.5285,10.4887 C3.7125,10.6087 3.9295,10.6807 4.1695,10.6807 C4.4095,10.6807 4.6345,10.6087 4.8195,10.4797 C5.0035,10.5357 5.1805,10.6167 5.3405,10.7207 Z M7.8659,10.8164 C6.7499,10.8164 5.8429,9.9134 5.8429,8.7964 C5.8429,7.6794 6.7499,6.7744 7.8659,6.7744 C8.9809,6.7744 9.8879,7.6794 9.8879,8.7964 C9.8879,9.9134 8.9809,10.8164 7.8659,10.8164 Z M10.9694,12.0137 C11.2814,12.3727 11.5424,12.7887 11.7414,13.2577 C11.8494,13.5117 11.9394,13.7807 12.0064,14.0627 C11.6294,14.6017 11.1514,15.0707 10.5834,15.4377 C10.5114,15.4837 10.4374,15.5297 10.3614,15.5737 L8.2874,16.7707 C8.0234,16.9237 7.6974,16.9237 7.4324,16.7707 L5.3574,15.5737 C5.2824,15.5297 5.2074,15.4837 5.1364,15.4377 C4.5734,15.0747 4.0964,14.6107 3.7224,14.0767 C3.7894,13.7887 3.8814,13.5157 3.9904,13.2577 C4.3834,12.3317 5.0244,11.6007 5.8174,11.1407 C6.0744,10.9907 6.3484,10.8687 6.6334,10.7797 C6.9834,11.0067 7.3994,11.1387 7.8454,11.1387 C8.2984,11.1387 8.7194,11.0027 9.0694,10.7707 C9.3584,10.8617 9.6344,10.9787 9.8924,11.1277 C10.2944,11.3577 10.6584,11.6557 10.9694,12.0137 Z" id="path-1"></path>
    </defs>
    <g id="Symbols" stroke="none" stroke-width="1" fill="none" fill-rule="evenodd">
        <g id="Components-/-icons-/-solutions-/-BIMhub">
            <g id="colors-/-gray-scale-/-404751" transform="translate(2.000000, 0.000000)">
                <mask id="mask-2" fill="white">
                    <use xlink:href="#path-1"></use>
                </mask>
                <use id="Mask" fill="#414751" xlink:href="#path-1"></use>
                <g mask="url(#mask-2)" fill="#404751" id="Rectangle">
                    <g transform="translate(-2.000000, 0.000000)">
                        <rect x="0" y="0" width="20" height="20"></rect>
                    </g>
                </g>
            </g>
        </g>
    </g>
</svg>