<?xml version="1.0" encoding="UTF-8"?>
<svg width="20px" height="20px" viewBox="0 0 20 20" version="1.1" xmlns="http://www.w3.org/2000/svg" xmlns:xlink="http://www.w3.org/1999/xlink">
    <!-- Generator: sketchtool 53 (72520) - https://sketchapp.com -->
    <title>60FC57B1-9015-4743-9652-D3FDE0FA7FD5</title>
    <desc>Created with sketchtool.</desc>
    <defs>
        <path d="M16.0876,17.0706 C16.7096,16.9496 17.1186,16.3446 16.9986,15.7226 L14.6746,3.7306 C14.5666,3.1816 14.0846,2.7996 13.5446,2.7996 C13.4726,2.7996 13.3996,2.8056 13.3266,2.8196 L11.3956,3.1946 L11.4106,3.2646 C11.4816,3.5876 11.2526,3.9106 10.9006,3.9876 L4.6226,5.3516 C4.2706,5.4286 3.9286,5.2296 3.8586,4.9076 L3.8056,4.6656 L2.2456,4.9676 C1.9436,5.0266 1.6836,5.1986 1.5116,5.4536 C1.3396,5.7076 1.2766,6.0136 1.3346,6.3146 L3.6586,18.3076 C3.7176,18.6096 3.8906,18.8706 4.1456,19.0426 C4.3996,19.2156 4.7116,19.2746 5.0066,19.2176 L16.0876,17.0706 Z M17.4886,15.6276 C17.6616,16.5206 17.0756,17.3876 16.1836,17.5606 L5.1026,19.7086 C4.9956,19.7286 4.8896,19.7396 4.7836,19.7396 C4.4586,19.7396 4.1406,19.6426 3.8646,19.4566 C3.4996,19.2106 3.2526,18.8366 3.1686,18.4036 L0.8446,6.4106 C0.7606,5.9766 0.8506,5.5386 1.0966,5.1736 C1.3436,4.8076 1.7176,4.5606 2.1506,4.4776 L3.6996,4.1766 L3.4376,2.9696 C3.3666,2.6476 3.5956,2.3246 3.9476,2.2476 L5.8666,1.8306 C6.1936,1.7586 6.1126,1.5246 6.1126,1.5246 C6.0126,1.0596 6.3426,0.5926 6.8516,0.4816 C7.3586,0.3716 7.8536,0.6596 7.9546,1.1246 C7.9546,1.1246 8.0056,1.3666 8.3076,1.2996 L10.2256,0.8836 C10.5776,0.8056 10.9196,1.0056 10.9896,1.3276 L11.2896,2.7066 L13.2316,2.3296 C14.1236,2.1506 14.9916,2.7426 15.1646,3.6346 L17.4886,15.6276 Z M12.2096,6.8792 C12.2336,6.9892 12.1646,7.0992 12.0546,7.1232 L4.9226,8.6962 C4.9096,8.6982 4.8976,8.7002 4.8846,8.7002 C4.7876,8.7042 4.6996,8.6382 4.6786,8.5402 C4.6536,8.4302 4.7246,8.3212 4.8336,8.2962 L11.9666,6.7242 C12.0746,6.7032 12.1856,6.7692 12.2096,6.8792 Z M12.9401,10.0531 C12.9641,10.1631 12.8951,10.2731 12.7851,10.2971 L5.6531,11.8701 C5.6401,11.8721 5.6281,11.8741 5.6151,11.8751 C5.5181,11.8781 5.4301,11.8121 5.4091,11.7141 C5.3841,11.6051 5.4541,11.4951 5.5641,11.4711 L12.6971,9.8981 C12.8041,9.8741 12.9161,9.9431 12.9401,10.0531 Z M13.4411,13.2728 C13.5491,13.2508 13.6611,13.3188 13.6851,13.4288 C13.7091,13.5388 13.6391,13.6478 13.5291,13.6718 L6.3971,15.2458 C6.3841,15.2478 6.3721,15.2498 6.3591,15.2508 C6.2631,15.2528 6.1741,15.1868 6.1531,15.0888 C6.1291,14.9798 6.1991,14.8708 6.3091,14.8458 L13.4411,13.2728 Z" id="path-1"></path>
    </defs>
    <g id="Symbols" stroke="none" stroke-width="1" fill="none" fill-rule="evenodd">
        <g id="Components-/-icons-/-solutions-/-BIMobject®-Properties">
            <g id="colors-/-gray-scale-/-404751" transform="translate(1.000000, 0.000000)">
                <mask id="mask-2" fill="white">
                    <use xlink:href="#path-1"></use>
                </mask>
                <use id="Mask" fill="#404751" xlink:href="#path-1"></use>
                <g mask="url(#mask-2)" fill="#404751" id="Rectangle">
                    <g transform="translate(-1.000000, 0.000000)">
                        <rect x="0" y="0" width="20" height="20"></rect>
                    </g>
                </g>
            </g>
        </g>
    </g>
</svg>