<?xml version="1.0" encoding="UTF-8"?>
<svg width="20px" height="20px" viewBox="0 0 20 20" version="1.1" xmlns="http://www.w3.org/2000/svg" xmlns:xlink="http://www.w3.org/1999/xlink">
    <!-- Generator: Sketch 55.2 (78181) - https://sketchapp.com -->
    <title>colors / gray scale / 404751 copy</title>
    <desc>Created with Sketch.</desc>
    <defs>
        <path d="M16.4646753,2.30824525 C18.4180252,2.30824525 20,3.92732192 20,5.92517341 C20,7.92302489 18.4180252,9.54104057 16.4646753,9.54104057 C14.5113254,9.54104057 12.9283132,7.92302489 12.9283132,5.92517341 C12.9283132,4.99468177 13.2716795,4.14588666 13.837041,3.50504635 L16.4646753,5.92517341 L16.4646753,2.30824525 Z M5.29676292,19.2965611 L5.29676292,17.0822668 L5.29676292,14.8032519 L5.29676292,6.76304028 L2.48447849,5.07606 L2.45854448,5.12380472 L0.51868027,4.01400512 L0.51868027,16.7363828 L5.29676292,19.2965611 Z M15.9224469,16.3395711 L15.9224469,11.7635045 L16.4411272,11.7635045 L16.4411272,16.4997812 C16.4411272,16.5984536 16.3871844,16.6896991 16.3021209,16.7353218 L11.005358,19.5745415 C10.968013,19.5936393 10.9265186,19.6042493 10.8850241,19.6042493 C10.8445671,19.6042493 10.80411,19.5904564 10.7657277,19.5713585 L10.7646903,19.5745415 L8.58934527,18.4085092 L5.65257758,19.991512 L5.6442787,19.9755971 C5.6152326,19.9851461 5.58618651,20 5.55610305,20 C5.51460863,20 5.47311421,19.9893901 5.43576923,19.9702922 L0.137968952,17.1321335 C0.0529053875,17.0865108 7.99360578e-14,16.9952653 7.99360578e-14,16.8965929 L7.99360578e-14,3.51958197 L0.0300834557,3.51958197 C0.0456438638,3.4442514 0.0840262037,3.3752868 0.152491999,3.33815201 L5.43369451,0.427845785 C5.50838447,0.384345035 5.60174692,0.385406029 5.6785116,0.426784791 L7.85904345,1.62358589 L10.7626156,0.0310340712 C10.8393803,-0.0103446904 10.930668,-0.0103446904 11.0074327,0.0310340712 L12.3103575,0.745082956 L12.0645031,1.21298126 L10.8850241,0.56577499 L6.10486678,3.18642989 L11.0126195,5.78055994 C11.0987204,5.82618268 11.1526632,5.91636716 11.1526632,6.01503959 L11.1526632,9.1534595 L10.6339829,9.1534595 L10.6339829,6.17737165 L5.81544319,3.62992533 L5.81544319,6.54341454 L5.81544319,14.8032519 L5.81544319,16.3215342 L10.625684,18.8997493 L10.625684,14.6037851 L11.1443643,14.6037851 L11.1443643,18.9008103 L15.9224469,16.3395711 Z" id="path-1"></path>
    </defs>
    <g id="Symbols" stroke="none" stroke-width="1" fill="none" fill-rule="evenodd">
        <g id="Headers-/-Desktop-/-Main-/-hover_2" transform="translate(-1002.000000, -135.000000)">
            <g id="colors-/-gray-scale-/-404751-copy" transform="translate(1002.000000, 135.000000)">
                <mask id="mask-2" fill="white">
                    <use xlink:href="#path-1"></use>
                </mask>
                <use id="Hercules-icon" fill="#3A4551" xlink:href="#path-1"></use>
                <g id="colors-/-gray-scale-/-404751" mask="url(#mask-2)" fill="#404751">
                    <rect id="Rectangle" x="0" y="0" width="21" height="21"></rect>
                </g>
            </g>
        </g>
    </g>
</svg>