<?xml version="1.0" encoding="UTF-8"?>
<svg width="20px" height="20px" viewBox="0 0 20 20" version="1.1" xmlns="http://www.w3.org/2000/svg" xmlns:xlink="http://www.w3.org/1999/xlink">
    <!-- Generator: sketchtool 53 (72520) - https://sketchapp.com -->
    <title>5FC06937-BB02-428D-9A1D-01FE98E02D91</title>
    <desc>Created with sketchtool.</desc>
    <defs>
        <path d="M4.5514,16.5833 C4.6894,16.5833 4.8014,16.6953 4.8014,16.8333 C4.8014,16.9713 4.6894,17.0833 4.5514,17.0833 L2.7704,17.0833 C2.6324,17.0833 2.5204,16.9713 2.5204,16.8333 L2.5204,9.0283 L0.2504,9.0283 C0.1454,9.0283 0.0514,8.9633 0.0164,8.8643 C-0.0196,8.7663 0.0094,8.6543 0.0894,8.5873 L10.1354,0.1343 C10.2274,0.0573 10.3594,0.0573 10.4524,0.1303 L18.5274,6.6093 C18.6344,6.6963 18.6524,6.8543 18.5664,6.9613 C18.4804,7.0683 18.3224,7.0873 18.2144,7.0003 L10.3004,0.6483 L0.9364,8.5283 L2.7704,8.5283 C2.9074,8.5283 3.0204,8.6413 3.0204,8.7783 L3.0204,16.5833 L4.5514,16.5833 Z M17.401,17.0765 L19.044,17.9725 L19.376,19.2225 L19.027,19.5835 L17.768,19.2945 L16.82,17.6795 L13.931,14.8935 L8.877,19.5725 C8.718,19.7185 8.512,19.7985 8.296,19.7985 C8.056,19.7985 7.827,19.6985 7.665,19.5225 C7.345,19.1755 7.368,18.6325 7.715,18.3115 L15.665,10.9545 C15.38,10.1445 15.603,9.2325 16.239,8.6465 C16.639,8.2785 17.159,8.0755 17.703,8.0755 C17.956,8.0755 18.204,8.1185 18.441,8.2045 L18.734,8.3095 L17.271,9.6575 C17.182,9.7395 17.176,9.8785 17.258,9.9685 L17.94,10.7075 C17.981,10.7525 18.039,10.7775 18.101,10.7775 C18.156,10.7775 18.209,10.7575 18.249,10.7205 L19.712,9.3725 L19.794,9.6735 C20.005,10.4565 19.766,11.2835 19.172,11.8315 C18.772,12.1995 18.253,12.4025 17.71,12.4025 L17.709,12.4025 C17.405,12.4025 17.102,12.3375 16.826,12.2155 L14.505,14.3625 L17.401,17.0765 Z M11.6657,13.6654 L10.8067,14.4614 L6.9847,10.8324 C6.5377,10.4014 6.6327,9.5714 7.1947,8.9894 L8.0217,8.1334 C8.5847,7.5514 9.4097,7.4274 9.8567,7.8584 L13.8477,11.6454 L13.1187,12.3204 L9.7447,9.1084 L9.4477,9.4254 L12.7997,12.6164 L11.9847,13.3704 L8.6057,10.1534 L8.3097,10.4704 L11.6657,13.6654 Z" id="path-1"></path>
    </defs>
    <g id="Symbols" stroke="none" stroke-width="1" fill="none" fill-rule="evenodd">
        <g id="Components-/-icons-/-solutions-/-Utility-Settings">
            <g id="colors-/-gray-scale-/-404751">
                <mask id="mask-2" fill="white">
                    <use xlink:href="#path-1"></use>
                </mask>
                <use id="Mask" fill="#404751" xlink:href="#path-1"></use>
                <g mask="url(#mask-2)" fill="#404751" id="Rectangle">
                    <rect x="0" y="0" width="20" height="20"></rect>
                </g>
            </g>
        </g>
    </g>
</svg>