<?xml version="1.0" encoding="UTF-8"?>
<svg width="20px" height="20px" viewBox="0 0 20 20" version="1.1" xmlns="http://www.w3.org/2000/svg" xmlns:xlink="http://www.w3.org/1999/xlink">
    <!-- Generator: sketchtool 53 (72520) - https://sketchapp.com -->
    <title>4086FFB0-FB72-4F90-B78A-FCCC58AE8805</title>
    <desc>Created with sketchtool.</desc>
    <defs>
        <path d="M15.938571,5.26623635 L9.77596051,8.52596699 L11.1607603,16.9193056 L11.1623638,16.919728 L17.1907029,13.0322065 L15.938571,5.26623635 Z M15.360419,5.0202089 L9.08840003,4.05368689 L3.14836385,7.11713652 L9.40759721,8.21471062 C9.42973947,8.17409308 9.46366473,8.13931412 9.50761996,8.11606387 L15.360419,5.0202089 Z M0.671055891,6.68498211 C0.692473321,6.81797201 0.602025958,6.94314389 0.469036051,6.96456132 C0.336046144,6.98597875 0.210874265,6.89553139 0.189456835,6.76254148 L0.00311556335,5.60546951 C-0.0137753639,5.50058657 0.0391637807,5.39683426 0.133998868,5.34895902 L1.14472953,4.83871564 C1.26497893,4.77801059 1.4116715,4.82628082 1.47237656,4.94653022 C1.53308161,5.06677962 1.48481138,5.21347219 1.36456198,5.27417724 L0.51307775,5.70402883 L0.671055891,6.68498211 Z M0.649984497,9.62185569 C0.628345812,9.48887448 0.719446874,9.36366593 0.853464413,9.34219457 C0.987481953,9.32072322 1.11366625,9.41111981 1.13530494,9.54410103 L1.64362539,12.6680002 C1.66526408,12.8009815 1.57416302,12.92619 1.44014548,12.9476614 C1.30612794,12.9691327 1.17994364,12.8787361 1.15830495,12.7457549 L0.649984497,9.62185569 Z M11.3363809,17.3879475 L11.1420662,17.4188266 L4.02012228,15.542731 C3.92683688,15.5181573 3.85680023,15.4409105 3.8414557,15.3456709 L2.51072536,7.08616722 C2.49395008,6.98204731 2.54599517,6.87893946 2.63972671,6.83059937 L8.93532997,3.58377345 L9.08427252,3.5594885 L16.162314,4.65021909 C16.2668709,4.66633137 16.3491199,4.74800995 16.3659594,4.85245215 L17.6976654,13.1119558 C17.713083,13.2075788 17.6704574,13.3032637 17.5890573,13.3557565 L11.3363809,17.3879475 Z M7.67219388,2.04094603 C7.55488932,2.10716281 7.40611588,2.06574798 7.3398991,1.94844342 C7.27368232,1.83113886 7.31509715,1.68236542 7.43240171,1.61614864 L8.47630307,1.02688095 L8.64345937,1 L9.81906792,1.23219488 C9.95121841,1.25829598 10.0371884,1.38658424 10.0110873,1.51873474 C9.98498625,1.65088524 9.85669799,1.73685527 9.72454749,1.71075418 L8.63749112,1.49604927 L7.67219388,2.04094603 Z M11.9749805,2.12588259 C11.8421866,2.10271672 11.7528575,1.97359495 11.7754583,1.83748104 C11.7980591,1.70136714 11.9240315,1.60980466 12.0568254,1.63297054 L14.3612132,2.03497054 C14.4940072,2.05813641 14.5833363,2.18725818 14.5607355,2.32337208 C14.5381346,2.45948599 14.4121623,2.55104846 14.2793684,2.52788259 L11.9749805,2.12588259 Z M16.7122855,2.79649746 C16.5802492,2.76982458 16.4948353,2.64116539 16.5215081,2.50912911 C16.548181,2.37709283 16.6768402,2.29167892 16.8088765,2.31835179 L17.9727777,2.5534735 C18.0724028,2.57359893 18.1491045,2.65339436 18.165277,2.75373693 L18.3369841,3.81910168 C18.3584179,3.95208895 18.267986,4.07727199 18.1349988,4.09870583 C18.0020115,4.12013968 17.8768285,4.02970776 17.8553946,3.8967205 L17.7105722,2.99816309 L16.7122855,2.79649746 Z M18.3195184,6.77310241 C18.2978993,6.64011467 18.3891285,6.51493364 18.5232845,6.49350276 C18.6574406,6.47207188 18.7837213,6.56250659 18.8053405,6.69549433 L19.3131771,9.81939355 C19.3347963,9.95238129 19.2435671,10.0775623 19.109411,10.0989932 C18.975255,10.1204241 18.8489742,10.0299894 18.8273551,9.89700162 L18.3195184,6.77310241 Z M19.3074933,12.9011177 C19.2860505,12.7681319 19.3764739,12.6429428 19.5094597,12.6214999 C19.6424456,12.6000571 19.7676347,12.6904806 19.7890775,12.8234664 L19.9968822,14.1122455 C20.0120335,14.2062122 19.9711389,14.3004084 19.8921426,14.3535015 L18.9936069,14.9574033 C18.8818078,15.032543 18.7302639,15.0028246 18.6551242,14.8910255 C18.5799845,14.7792264 18.6097028,14.6276825 18.721502,14.5525428 L19.4904418,14.0357418 L19.3074933,12.9011177 Z M16.7825462,15.9358389 C16.8936018,15.8596045 17.0454303,15.8878327 17.1216647,15.9988882 C17.1978991,16.1099438 17.169671,16.2617723 17.0586154,16.3380067 L15.0205687,17.7370296 C14.9095132,17.813264 14.7576847,17.7850359 14.6814503,17.6739804 C14.6052159,17.5629248 14.633444,17.4110963 14.7444995,17.3348619 L16.7825462,15.9358389 Z M5.4426493,2.6983765 C5.56211735,2.63614785 5.70941164,2.68254955 5.7716403,2.8020176 C5.83386895,2.92148566 5.78746725,3.06877994 5.6679992,3.1310086 L3.54214773,4.23832453 C3.42267968,4.30055319 3.27538539,4.25415149 3.21315673,4.13468343 C3.15092808,4.01521538 3.19732978,3.86792109 3.31679783,3.80569244 L5.4426493,2.6983765 Z M3.2816345,17.0388276 C3.41253749,17.0705991 3.49289947,17.2024728 3.46112798,17.3333758 C3.4293565,17.4642788 3.29748278,17.5446408 3.16657978,17.5128693 L2.02901998,17.236772 C1.9336087,17.2136148 1.86138426,17.1355063 1.84575522,17.0385769 L1.63795056,15.7497977 C1.61650773,15.6168119 1.70693118,15.4916227 1.839917,15.4701799 C1.97290281,15.4487371 2.09809196,15.5391605 2.11953479,15.6721464 L2.30154475,16.8009499 L3.2816345,17.0388276 Z M5.62297557,18.1826505 C5.49340538,18.1458186 5.41822611,18.0109231 5.45505798,17.8813529 C5.49188985,17.7517827 5.62678538,17.6766034 5.75635557,17.7134353 L8.15537749,18.3953858 C8.28494768,18.4322177 8.36012695,18.5671132 8.32329508,18.6966834 C8.28646321,18.8262536 8.15156768,18.9014329 8.02199749,18.864601 L5.62297557,18.1826505 Z M12.466661,18.6851607 C12.5853366,18.6214338 12.7332031,18.6659786 12.79693,18.7846542 C12.8606568,18.9033298 12.8161121,19.0511963 12.6974364,19.1149232 L11.6818277,19.6602885 L11.5278517,19.6862375 L10.3405359,19.4959938 C10.207529,19.4746821 10.1169822,19.3495821 10.1382939,19.2165752 C10.1596056,19.0835684 10.2847055,18.9930215 10.4177124,19.0143332 L11.5236564,19.1915387 L12.466661,18.6851607 Z" id="path-1"></path>
    </defs>
    <g id="Symbols" stroke="none" stroke-width="1" fill="none" fill-rule="evenodd">
        <g id="Components-/-icons-/-solutions-/--BIMobject®-Mosquito">
            <rect id="Rectangle" x="0" y="0" width="20" height="20"></rect>
            <mask id="mask-2" fill="white">
                <use xlink:href="#path-1"></use>
            </mask>
            <use id="Mosquito" fill="#414751" fill-rule="nonzero" xlink:href="#path-1"></use>
            <g id="colors-/-gray-scale-/-404751" mask="url(#mask-2)" fill="#404751">
                <rect id="Rectangle" x="0" y="0" width="20" height="20"></rect>
            </g>
        </g>
    </g>
</svg>