<?xml version="1.0" encoding="UTF-8"?>
<svg width="20px" height="19px" viewBox="0 0 20 19" version="1.1" xmlns="http://www.w3.org/2000/svg" xmlns:xlink="http://www.w3.org/1999/xlink">
    <!-- Generator: Sketch 55.2 (78181) - https://sketchapp.com -->
    <title>Components / icons / solutions / BIMobject® Apps (plugins)</title>
    <desc>Created with Sketch.</desc>
    <defs>
        <path d="M19.317877,6.83304339 L16.4802464,7.37913675 C16.1151931,7.49736315 15.8809192,7.85861048 15.9260804,8.25645169 L16.468956,11.0704276 C16.4849506,11.1342323 16.4727195,11.2017903 16.4350851,11.2571503 C16.3974508,11.3106336 16.3381766,11.3481658 16.2572628,11.3584872 L13.4375084,11.8980124 C13.366944,11.9177168 13.2926161,11.9027039 13.2286377,11.8623568 C13.166541,11.8220097 13.1251432,11.7610199 13.1119712,11.690647 L12.6001439,8.85790503 C12.572859,8.77158099 12.5305204,8.69464 12.4768914,8.62708206 C12.426085,8.55952412 12.3621066,8.50228753 12.292483,8.45443399 L12.292483,8.45349568 C12.3988001,8.29116896 12.4354936,8.09412497 12.3912732,7.91678537 L11.8502793,5.07653692 C11.7703063,4.68714045 11.4061939,4.43098325 10.9988019,4.4994795 L8.1809293,5.03994303 C8.11036487,5.05495591 8.03321444,5.04463455 7.9720586,5.00428745 C7.91090277,4.96487865 7.86762326,4.90013562 7.85351037,4.82788616 L7.31627989,2.07865326 C7.30404873,1.98294618 7.2701778,1.89193062 7.222194,1.81029811 L14.1779644,0.472275543 C14.1911365,0.470398934 14.2043085,0.468522324 14.2174805,0.468522324 C14.2748729,0.468522324 14.3313244,0.487288419 14.3783674,0.52106739 C14.4367007,0.566106018 14.474335,0.62991074 14.4856253,0.715296472 L15.0266192,3.48329546 C15.1065922,3.87269193 15.4763498,4.12884913 15.8780966,4.06129118 L18.6827972,3.52364257 C18.8258078,3.50487647 18.9594098,3.59401542 18.9866947,3.73100791 L19.5267477,6.52715605 C19.5502692,6.66977837 19.4571242,6.80489425 19.317877,6.83304339 L19.317877,6.83304339 Z M13.3725891,15.5592775 C13.3876429,15.6230822 13.3754117,15.6906402 13.3377774,15.7460001 C13.300143,15.8013601 13.2408689,15.8370157 13.1608959,15.8473371 L2.77757618,17.8243451 C2.70795261,17.8402963 2.63268389,17.8290367 2.56964634,17.7886896 C2.50849051,17.7492808 2.46615185,17.685476 2.45203897,17.6132266 L0.473412536,7.27967645 C0.448009344,7.11734973 0.555267267,6.96534436 0.714272435,6.93438031 L3.51803219,6.42488083 C3.59612349,6.40048491 3.66386534,6.3591995 3.72784375,6.31322257 L5.05821834,13.2754438 C5.16547627,13.6104185 5.47972317,13.8356117 5.84007216,13.8356117 C5.87206136,13.8356117 5.90499142,13.8337351 5.93886235,13.8290436 L8.74826726,13.2913949 C8.84235316,13.2726288 8.92985304,13.2350967 9.0088852,13.1834899 C9.08697649,13.1328214 9.15377748,13.0662018 9.2083473,12.9892608 C9.2083473,12.9892608 9.20928816,12.9892608 9.20928816,12.9883225 C9.36547075,13.0802764 9.54987911,13.1168703 9.72017459,13.0746465 L12.5192301,12.5379362 C12.6829395,12.5163552 12.8344178,12.620507 12.8645253,12.7800189 L13.3725891,15.5592775 Z M6.56265185,1.93978416 C6.62663026,1.92477128 6.69531297,1.93603094 6.74988279,1.97356313 C6.80445261,2.01109532 6.84114611,2.07114682 6.85149556,2.15277934 L7.39154861,4.91702511 C7.42918297,5.1131308 7.5477312,5.28859379 7.71614496,5.39837544 C7.88455872,5.50628049 8.09248855,5.54475098 8.27971949,5.49783574 L11.0815975,4.96112543 C11.2246081,4.93297629 11.3600918,5.02962168 11.3892584,5.16849078 L11.9311932,8.01812228 C11.9481286,8.08192701 11.9349566,8.14948495 11.8973223,8.20390662 C11.8596879,8.2592666 11.8004138,8.29492218 11.7194999,8.30524353 L8.8941004,8.84758368 C8.89315954,8.84758368 8.89221868,8.84852198 8.89127783,8.84852198 L8.88375095,8.85039859 C8.86869721,8.85509011 8.85834776,8.86634977 8.84423488,8.8719796 L8.84329402,8.8719796 C8.73697695,8.91326501 8.64665449,8.97706973 8.5685632,9.05494902 C8.54127829,9.08122156 8.51681595,9.10655578 8.49423534,9.13751984 C8.41802576,9.23791845 8.36533766,9.35239163 8.34181618,9.48000107 L8.34181618,9.48281599 C8.33146673,9.55037393 8.32017642,9.61980848 8.3277033,9.69299625 L8.32958501,9.70144099 C8.33052587,9.70988573 8.32676244,9.71926878 8.3277033,9.72959013 L8.87057893,12.5041573 C8.88751439,12.5754684 8.87434236,12.6514711 8.83388543,12.7133992 C8.79436935,12.7734507 8.73039094,12.8166127 8.6579448,12.8316256 L5.86829792,13.3664593 C5.71023362,13.3814722 5.55593274,13.2857651 5.51359409,13.1600323 L4.06937556,5.59823435 C4.0684347,5.57946826 4.07407985,5.56351708 4.07219813,5.54568929 L3.5340268,2.79176487 C3.52744078,2.71763879 3.5500214,2.64632763 3.58389232,2.58721443 C3.62152668,2.53466937 3.6760965,2.49432226 3.74195663,2.48024769 L6.39235638,1.96980991 L6.56265185,1.93978416 Z M19.4486564,3.64093066 C19.3686834,3.25059589 18.9951624,2.99819191 18.6037651,3.06012002 L15.795301,3.59964525 C15.6522905,3.62779439 15.5168068,3.5302107 15.488581,3.3913416 L14.9504097,0.639293788 C14.9240656,0.445064706 14.8186894,0.2658485 14.6596842,0.146683798 C14.5006791,0.0275190954 14.2983944,-0.0240876654 14.0961097,0.01062961 L6.23617379,1.52317686 L3.62529012,1.99139092 C3.44934949,2.04768921 3.30539806,2.16310069 3.20660787,2.30947623 C3.16332836,2.36765112 3.13510259,2.43520906 3.11064026,2.50558192 C3.10875854,2.51308836 3.1049951,2.51777988 3.10217252,2.52528632 C3.07865105,2.601289 3.07112418,2.68104491 3.0730059,2.76549233 C3.0730059,2.79457978 3.06453817,2.82272892 3.06736074,2.85181637 L3.07018332,2.86589094 C3.07018332,2.86682925 3.06924246,2.86870586 3.07018332,2.86964416 L3.60082778,5.6470262 C3.6027095,5.79527835 3.51803219,5.93133254 3.4032474,5.97074133 L0.627713409,6.47367268 C0.216558035,6.55249028 -0.0553502104,6.93813352 0.00956905922,7.35943235 L1.95338371,17.5100131 L1.95338371,17.5578666 C1.95526543,17.5822625 1.97031917,17.6019669 1.97502347,17.6254245 L1.99007721,17.7014272 C1.99384065,17.7220699 2.00889439,17.7398977 2.01453954,17.7605404 L2.17260385,18.5731123 C2.1989479,18.713858 2.27986178,18.8377143 2.39652829,18.9155936 C2.51413566,18.9934729 2.65714623,19.0188071 2.79262992,18.9859664 L13.5588792,16.8813489 C13.8232606,16.7940865 13.9907335,16.5266697 13.960626,16.2423634 L13.83361,15.5236219 C13.8307875,15.5029792 13.8373735,15.4813982 13.8317283,15.4607555 L13.3274279,12.6936948 C13.2982613,12.5407511 13.2154657,12.4159566 13.1138529,12.3118048 L13.1147938,12.3118048 C13.1797131,12.3362007 13.2418097,12.3568434 13.3104925,12.3624732 C13.386702,12.3737329 13.4629116,12.3746712 13.5372395,12.3568434 L16.3325315,11.8210714 C16.5310527,11.7947989 16.7098159,11.6868938 16.822719,11.5226905 C16.9356221,11.3575489 16.9732565,11.1529984 16.9280952,10.970029 L16.3908648,8.18607883 C16.3729884,8.02656703 16.4717786,7.87456166 16.5978537,7.83139964 L19.4100812,7.29281272 C19.8005377,7.21305681 20.0555105,6.84336475 19.9896503,6.44458523 L19.4486564,3.64093066 Z" id="path-1"></path>
    </defs>
    <g id="Symbols" stroke="none" stroke-width="1" fill="none" fill-rule="evenodd">
        <g id="Headers-/-Desktop-/-Main-/-hover_2" transform="translate(-562.000000, -135.000000)">
            <g id="Components-/-icons-/-solutions-/-BIMobject®-Apps-(plugins)" transform="translate(562.000000, 135.000000)">
                <rect id="Rectangle-Copy-6" x="0" y="0" width="20" height="20"></rect>
                <g id="colors-/-gray-scale-/-404751" stroke-width="1" fill-rule="evenodd">
                    <mask id="mask-2" fill="white">
                        <use xlink:href="#path-1"></use>
                    </mask>
                    <use id="Mask" fill="#3A4551" xlink:href="#path-1"></use>
                    <g mask="url(#mask-2)" fill="#404751" id="Rectangle">
                        <rect x="0" y="0" width="20" height="20"></rect>
                    </g>
                </g>
            </g>
        </g>
    </g>
</svg>