<svg xmlns="http://www.w3.org/2000/svg" xmlns:xlink="http://www.w3.org/1999/xlink" width="53" height="53" viewBox="0 0 53 53">
    <defs>
        <path id="a" d="M1.77 20.515l15.748 17.32-10.38 6.06-5.368-23.38zM20.164 1.407l9.378 2.047-24.888 12.58 15.51-14.627zm-.604 36.606l31.496-3.127-19.584 16.227-11.912-13.1zm10.128 13.201L8.532 44.681l9.937-5.803 11.219 12.336zM2.135 18.853L30.914 4.305l-12.162 32.82L2.135 18.854zm49.168 14.432L31.885 3.965 45.587 6.95l5.716 26.334zM46.917 6.467a1.052 1.052 0 0 0-.805-.807L20.312.033a1.05 1.05 0 0 0-.99.261l-19 17.919c-.261.25-.376.626-.298.98l5.88 25.584c.086.357.361.646.715.753l24.04 7.423c.103.03.213.047.32.047.26 0 .513-.09.695-.258L52.647 35.37c.284-.25.41-.63.329-.99L46.917 6.468z"/>
    </defs>
    <g fill="none" fill-rule="evenodd">
        <path d="M0 0h53v53H0z"/>
        <mask id="b" fill="#fff">
            <use xlink:href="#a"/>
        </mask>
        <g fill="#404751" mask="url(#b)">
            <path d="M0 0h53v53H0z"/>
        </g>
    </g>
</svg>
