<?xml version="1.0" encoding="UTF-8"?>
<svg width="20px" height="20px" viewBox="0 0 20 20" version="1.1" xmlns="http://www.w3.org/2000/svg" xmlns:xlink="http://www.w3.org/1999/xlink">
    <!-- Generator: sketchtool 53 (72520) - https://sketchapp.com -->
    <title>ED0758D4-DC77-473C-84C8-50440CBEF3E0</title>
    <desc>Created with sketchtool.</desc>
    <defs>
        <path d="M6.5514,6.9144 L6.5514,7.2844 L9.4474,7.2844 L9.4474,7.7304 L6.5514,7.7304 L6.5514,9.2374 C6.5514,9.7964 6.2164,9.8034 5.0584,9.8034 C5.0234,9.6774 4.9324,9.4894 4.8564,9.3564 C5.1344,9.3634 5.4064,9.3704 5.6024,9.3704 C6.0344,9.3704 6.0564,9.3704 6.0564,9.2304 L6.0564,7.7304 L3.1534,7.7304 L3.1534,7.2844 L6.0564,7.2844 L6.0564,6.6354 L6.2724,6.6484 C6.6494,6.4334 7.0464,6.1404 7.3544,5.8534 L4.4654,5.8534 L4.4654,5.4214 L7.8284,5.4214 L7.9114,5.3934 L8.2814,5.6234 C8.2684,5.6574 8.2194,5.6794 8.1774,5.6854 C7.7804,6.0914 7.1454,6.5794 6.5514,6.9144 Z M3.8717,4.6458 L3.8717,5.8328 L3.4107,5.8328 L3.4107,4.1998 L6.0417,4.1998 L6.0417,3.3058 L6.6697,3.3478 C6.6627,3.3968 6.6287,3.4318 6.5307,3.4458 L6.5307,4.1998 L9.2107,4.1998 L9.2107,5.8328 L8.7357,5.8328 L8.7357,4.6458 L3.8717,4.6458 Z M16.4342,17.3236 L16.9402,17.3236 L14.4052,10.8626 L14.1192,10.8626 L11.5312,17.3236 L12.0282,17.3236 L12.9252,15.0526 L15.5402,15.0526 L16.4342,17.3236 Z M10.1672,12.0696 C11.1142,12.0696 11.8802,11.3026 11.8802,10.3566 L11.8802,8.0906 L11.8842,8.0906 L11.8842,2.5496 C11.8842,1.6356 11.1412,0.8936 10.2282,0.8936 L2.3722,0.8936 C1.4592,0.8936 0.7162,1.6356 0.7162,2.5496 L0.7162,10.4056 C0.7162,11.3186 1.4592,12.0616 2.3722,12.0616 L8.5232,12.0616 L8.5232,12.0696 L10.1672,12.0696 Z M17.8312,7.8456 C18.9082,7.8456 19.7842,8.7216 19.7842,9.7986 L19.7842,17.6536 C19.7842,18.7296 18.9082,19.6056 17.8312,19.6056 L9.9752,19.6056 C8.8992,19.6056 8.0232,18.7296 8.0232,17.6536 L8.0232,12.5616 L2.3722,12.5616 C1.1842,12.5616 0.2162,11.5946 0.2162,10.4056 L0.2162,2.5496 C0.2162,1.3606 1.1842,0.3936 2.3722,0.3936 L10.2282,0.3936 C11.4162,0.3936 12.3842,1.3606 12.3842,2.5496 L12.3842,7.8456 L17.8312,7.8456 Z M13.9909,12.3372 C14.0849,12.1082 14.1719,11.8532 14.2509,11.5702 C14.3529,11.8942 14.4409,12.1462 14.5139,12.3272 L15.3899,14.6482 L13.0889,14.6482 L13.9909,12.3372 Z" id="path-1"></path>
    </defs>
    <g id="Symbols" stroke="none" stroke-width="1" fill="none" fill-rule="evenodd">
        <g id="Components-/-icons-/-solutions-/-Language-translation">
            <g id="colors-/-gray-scale-/-404751">
                <mask id="mask-2" fill="white">
                    <use xlink:href="#path-1"></use>
                </mask>
                <use id="Mask" fill="#404751" xlink:href="#path-1"></use>
                <g mask="url(#mask-2)" fill="#404751" id="Rectangle">
                    <rect x="0" y="0" width="20" height="20"></rect>
                </g>
            </g>
        </g>
    </g>
</svg>