<svg xmlns="http://www.w3.org/2000/svg" xmlns:xlink="http://www.w3.org/1999/xlink" width="53" height="53" viewBox="0 0 53 53">
    <defs>
        <path id="a" d="M1.493 19.226l2.106-.363 3.992 21.75 1.02-.176c6.226-.408 13.158-.007 18.123.565l-19.84 7.627-5.401-29.403zM8.077 7.811l4.688 25.544.618-.09c3.881-.552 5.17 1.03 6.826 3.026.888 1.07 1.856 2.208 3.236 3.139-4.482-.37-9.828-.562-14.806-.237L2.979 8.368a43.313 43.313 0 0 1 5.098-.557zm11.182-.535c.89 1.286 1.735 2.507 3.027 3.122L26.06 30.94l1.632 8.883c-3.5-.722-5.012-2.542-6.477-4.309-1.531-1.848-2.988-3.604-6.357-3.604-.327 0-.672.015-1.04.05L8.178 1.254c7.07.216 9.287 3.425 11.081 6.022zm8.235-.445c.015-.013.033-.023.051-.035l3.068 16.729 3.18-5.938 5.021 4.472-3.467-18.885c.167-.055.322-.114.492-.164 1.351-.41 2.85-.759 4.45-1.042l5.658 30.808c-6.075 1.102-11.908 3.46-16.978 6.875L23.57 10.276c.723-.86 1.969-2.122 3.923-3.445zm18.564 4.753l5.398 29.4-21.21-.616a43.45 43.45 0 0 1 16.123-6.403l1.071-.18-3.995-21.755 2.613-.446zm-16.672 30.35l-.062-.35L53 42.273l-5.9-32.131-3.879.664L41.334.527l-1.07.182a39.88 39.88 0 0 0-4.806 1.114c-3.298.97-6.227 2.311-8.706 3.985-1.879 1.276-3.148 2.505-3.948 3.416-.953-.483-1.668-1.473-2.474-2.637C18.41 3.806 15.779 0 7.408 0h-.767l1.21 6.582c-1.72.09-3.493.284-5.28.592l-1.086.184L3.372 17.64 0 18.221 5.902 50.35l22.845-8.783.054.002.585.366z"/>
    </defs>
    <g fill="none" fill-rule="evenodd">
        <path d="M0 0h20v20H0z"/>
        <mask id="b" fill="#fff">
            <use xlink:href="#a"/>
        </mask>
        <use fill="#3A4551" xlink:href="#a"/>
        <g fill="#404751" mask="url(#b)">
            <path d="M0-1.325h53v53H0z"/>
        </g>
    </g>
</svg>
