<?xml version="1.0" encoding="UTF-8"?>
<svg width="20px" height="20px" viewBox="0 0 20 20" version="1.1" xmlns="http://www.w3.org/2000/svg" xmlns:xlink="http://www.w3.org/1999/xlink">
    <!-- Generator: sketchtool 53 (72520) - https://sketchapp.com -->
    <title>0404DC63-553B-43C3-8E43-A35AB42942C5</title>
    <desc>Created with sketchtool.</desc>
    <defs>
        <path d="M10.4707,7.6367 L10.4687,7.6367 C13.6127,7.6367 13.9997,8.7577 13.9997,10.4427 L13.9997,11.6367 C13.9997,13.3177 13.6127,14.4457 10.4687,14.4457 L9.7467,14.4457 C8.2457,14.4457 7.6257,13.9367 7.3537,13.1207 L7.3277,13.1207 L7.3277,14.3357 L4.9997,14.3357 L4.9997,6.5547 L7.4847,6.5547 L7.4847,8.9607 L7.5117,8.9607 C7.6667,7.9207 8.7137,7.6367 9.7367,7.6367 L10.4707,7.6367 Z M11.5957,11.4277 L11.5957,10.6497 C11.5957,9.9127 11.4797,9.4987 10.2897,9.4987 L8.8277,9.4987 C7.8447,9.4987 7.3277,9.7197 7.3277,10.7147 L7.3277,11.3627 C7.3277,12.3587 7.8447,12.5767 8.8277,12.5767 L10.2897,12.5767 C11.4757,12.5767 11.5957,12.1637 11.5957,11.4277 Z M16,1 C17.657,1 19,2.343 19,4 L19,17 C19,18.657 17.657,20 16,20 L3,20 C1.344,20 0,18.657 0,17 L0,4 C0,2.343 1.344,1 3,1 L16,1 Z M16,1.5 L3,1.5 C1.621,1.5 0.5,2.621 0.5,4 L0.5,17 C0.5,18.379 1.621,19.5 3,19.5 L16,19.5 C17.379,19.5 18.5,18.379 18.5,17 L18.5,4 C18.5,2.621 17.379,1.5 16,1.5 Z" id="path-1"></path>
    </defs>
    <g id="Symbols" stroke="none" stroke-width="1" fill="none" fill-rule="evenodd">
        <g id="Components-/-icons-/-solutions-/-BIMobject®-Cloud">
            <rect id="Rectangle-Copy-6" x="0" y="0" width="20" height="20"></rect>
            <mask id="mask-2" fill="white">
                <use xlink:href="#path-1"></use>
            </mask>
            <use id="BIMobject-cloud" fill="#404751" xlink:href="#path-1"></use>
            <g id="colors-/-gray-scale-/-404751" mask="url(#mask-2)" fill="#404751">
                <rect id="Rectangle" x="0" y="0" width="20" height="20"></rect>
            </g>
        </g>
    </g>
</svg>