<?xml version="1.0" encoding="UTF-8"?>
<svg width="20px" height="20px" viewBox="0 0 20 20" version="1.1" xmlns="http://www.w3.org/2000/svg" xmlns:xlink="http://www.w3.org/1999/xlink">
    <!-- Generator: sketchtool 53 (72520) - https://sketchapp.com -->
    <title>6B3AA2EE-7049-434F-BDE1-080E314CBFEB</title>
    <desc>Created with sketchtool.</desc>
    <defs>
        <path d="M18.4092,15.3548 C18.8342,15.3548 19.1802,15.0088 19.1802,14.5838 L19.1802,3.2818 L0.8202,3.2818 L0.8202,14.5838 C0.8202,15.0088 1.1662,15.3548 1.5912,15.3548 L18.4092,15.3548 Z M1.5912,0.6458 C1.1662,0.6458 0.8202,0.9918 0.8202,1.4168 L0.8202,2.7818 L19.1802,2.7818 L19.1802,1.4168 C19.1802,0.9918 18.8342,0.6458 18.4092,0.6458 L1.5912,0.6458 Z M18.4092,0.1458 C19.1092,0.1458 19.6802,0.7158 19.6802,1.4168 L19.6802,14.5838 C19.6802,15.2848 19.1092,15.8548 18.4092,15.8548 L1.5912,15.8548 C0.8902,15.8548 0.3202,15.2848 0.3202,14.5838 L0.3202,1.4168 C0.3202,0.7158 0.8902,0.1458 1.5912,0.1458 L18.4092,0.1458 Z M17.3682,6.0384 C17.5062,6.0384 17.6182,6.1504 17.6182,6.2884 C17.6182,6.4264 17.5062,6.5384 17.3682,6.5384 L13.7222,6.5384 C13.5852,6.5384 13.4722,6.4264 13.4722,6.2884 C13.4722,6.1504 13.5852,6.0384 13.7222,6.0384 L17.3682,6.0384 Z M17.3682,9.389 C17.5062,9.389 17.6182,9.501 17.6182,9.639 C17.6182,9.777 17.5062,9.889 17.3682,9.889 L13.7222,9.889 C13.5852,9.889 13.4722,9.777 13.4722,9.639 C13.4722,9.501 13.5852,9.389 13.7222,9.389 L17.3682,9.389 Z M17.3682,12.8314 C17.5062,12.8314 17.6182,12.9434 17.6182,13.0814 C17.6182,13.2194 17.5062,13.3314 17.3682,13.3314 L2.6482,13.3314 C2.5112,13.3314 2.3982,13.2194 2.3982,13.0814 C2.3982,12.9434 2.5112,12.8314 2.6482,12.8314 L17.3682,12.8314 Z M11.1504,6.2259 L11.1504,10.1399 L2.5884,10.1399 L2.5884,4.7159 L4.8434,6.6109 L4.8434,4.7159 L7.0984,6.6109 L7.0984,4.7159 L9.3534,6.6109 L9.3534,4.7159 L11.1504,6.2259 Z" id="path-1"></path>
    </defs>
    <g id="Symbols" stroke="none" stroke-width="1" fill="none" fill-rule="evenodd">
        <g id="Components-/-icons-/-solutions-/-Product-Sites">
            <g id="colors-/-gray-scale-/-404751" transform="translate(0.000000, 2.000000)">
                <mask id="mask-2" fill="white">
                    <use xlink:href="#path-1"></use>
                </mask>
                <use id="Mask" fill="#404751" xlink:href="#path-1"></use>
                <g mask="url(#mask-2)" fill="#404751" id="Rectangle">
                    <g transform="translate(0.000000, -2.000000)">
                        <rect x="0" y="0" width="20" height="20"></rect>
                    </g>
                </g>
            </g>
        </g>
    </g>
</svg>