<?xml version="1.0" encoding="UTF-8"?>
<svg width="20px" height="20px" viewBox="0 0 20 20" version="1.1" xmlns="http://www.w3.org/2000/svg" xmlns:xlink="http://www.w3.org/1999/xlink">
    <!-- Generator: sketchtool 53 (72520) - https://sketchapp.com -->
    <title>F7519A60-9FBB-4710-8FE5-45713CEC5BF5</title>
    <desc>Created with sketchtool.</desc>
    <defs>
        <path d="M16.3732042,3.14964042 L8.55861744,4.70944291 L8.47010786,4.53964925 L8.06192962,3.73571222 C8.04098457,3.63319458 7.91882833,3.56068381 7.77969351,3.58901684 L1.41956467,4.85810928 C1.27814881,4.88631199 1.19164377,5.00289237 1.21324919,5.10865895 L1.44507078,6.23810614 L7.44057675,5.04097487 C7.86581787,4.95790606 8.2817287,5.20412332 8.34086013,5.54515016 L8.65999488,6.163605 L16.6099189,4.57680483 C16.81289,4.53631204 17.0140216,4.55460983 17.1949151,4.61992276 L16.9741319,3.54183768 C16.9178385,3.26973247 16.6480546,3.09437578 16.3732042,3.14964042 Z M16.2714081,2.65498373 C16.8224275,2.5441888 17.3627468,2.89549417 17.4754459,3.44124697 L17.8769933,5.40200293 L17.3755585,5.50200517 C17.3142125,5.20265693 17.0177146,5.01041482 16.7113308,5.07153847 L8.38045948,6.73437548 L8.29228261,6.56349654 L7.86206011,5.70897886 C7.8374886,5.5873196 7.69862711,5.50511425 7.54099071,5.53590548 L1.04519957,6.83293178 L0.994436537,6.58561156 L0.711805034,5.20861522 C0.632181685,4.81883138 0.909694826,4.44483484 1.3181845,4.36336932 L7.67728416,3.0944843 C8.08392559,3.01167096 8.48444149,3.24941335 8.54013918,3.57041137 L8.83652932,4.13899573 L16.2714081,2.65498373 Z M19.0353504,16.4047979 C19.3419574,16.3436297 19.5392406,16.052774 19.4765225,15.7532307 L17.3768465,5.50352917 C17.3138516,5.20267489 17.0175778,5.01057812 16.7114052,5.0729852 L8.38180736,6.73478319 L8.29352176,6.56430084 L7.86101032,5.70763474 C7.83694988,5.58629976 7.69871002,5.50446241 7.5400884,5.53639125 L0.748068588,6.89186044 C0.588995758,6.92408209 0.490916386,7.05735028 0.515664662,7.17722211 L2.95098219,19.0538756 C3.01109773,19.3537384 3.3049002,19.5455726 3.61110293,19.4832958 L19.0353504,16.4047979 Z M8.66079077,6.16415877 L16.608959,4.57846022 C17.1907025,4.45987923 17.7576711,4.82748796 17.8780623,5.40246942 L19.9777383,15.6521709 C20.0978501,16.2258066 19.7197629,16.7832227 19.1367595,16.8995321 L3.71346058,19.9778389 C3.130238,20.0964606 2.56444775,19.7270358 2.44934782,19.1528926 L0.0143158928,7.27764282 C-0.0688231168,6.87495087 0.219097294,6.48373065 0.645918318,6.39727525 L7.43824711,5.04174368 C7.86469409,4.95590348 8.28223449,5.20308544 8.33981587,5.54434587 L8.66079077,6.16415877 Z M11.1193235,14.173501 C12.2350455,13.9504493 12.2652528,13.5456874 12.1278582,12.8630723 L11.9787704,12.1448843 C11.8404014,11.4661149 11.6513621,11.1036559 10.5356401,11.3267076 L9.16559195,11.5987922 C8.24085819,11.786271 7.80041597,12.0795071 7.9884809,13.003441 L8.11223347,13.6024117 C8.30127283,14.5215385 8.825516,14.6301801 9.75122419,14.4455856 L11.1193235,14.173501 Z M14.4197168,12.6025248 C14.7393297,14.1571566 14.5921909,15.2762608 11.6416178,15.8665786 L10.9653636,16.0021402 C9.55731269,16.2828777 8.88008406,15.9281101 8.46692587,15.2243436 L8.44646285,15.2291508 L8.67740268,16.3530621 L6.49273134,16.7876283 L5.01452151,9.58748133 L7.34243402,9.12503364 L7.80041597,11.3497819 L7.82575114,11.3430519 C7.77118308,10.3547022 8.70371229,9.89225454 9.66060223,9.70189146 L10.3514729,9.56536844 C13.3010715,8.97601204 13.875985,9.9460946 14.195598,11.499765 L14.4197168,12.6025248 Z M16.0899919,1.51425709 L8.82645482,2.96278989 L8.73857102,2.79104861 L8.36443886,2.03997618 C8.34723209,1.9561512 8.24134411,1.89464973 8.12113527,1.91901314 L2.21397556,3.09775921 C2.09445096,3.12152805 2.02234696,3.21855152 2.04096055,3.30708991 L2.22028849,4.18352048 L7.6768754,3.09444854 C8.08420808,3.01178859 8.48382827,3.24927352 8.539434,3.57018046 L8.83671632,4.1390362 L16.2717979,2.65498373 C16.453658,2.61841663 16.6343526,2.63218539 16.7988929,2.68666761 L16.6295664,1.8621848 C16.5797264,1.61999717 16.3395983,1.46413576 16.0899919,1.51425709 Z M15.9883048,1.01957858 C16.5138584,0.914046136 17.0246973,1.24561947 17.1309219,1.76179587 L17.4758901,3.44151156 L16.974559,3.54201805 C16.9183474,3.26980997 16.6485051,3.09436357 16.3735939,3.14964042 L8.55920998,4.70940243 L8.47061815,4.53988017 L8.06134496,3.73571222 C8.04033526,3.6328781 7.91882282,3.5606661 7.77912104,3.5890144 L1.82010459,4.77836691 L1.76946713,4.53088611 L1.53977675,3.40830062 C1.46140741,3.0355999 1.7257077,2.67995621 2.11273287,2.60299187 L8.01895969,1.42443311 C8.40469505,1.34625005 8.78992915,1.57000034 8.84347135,1.87613229 L9.10735667,2.39181324 L15.9883048,1.01957858 Z" id="path-1"></path>
    </defs>
    <g id="Symbols" stroke="none" stroke-width="1" fill="none" fill-rule="evenodd">
        <g id="Components-/-icons-/-solutions-/-BIMobject®-EVO">
            <rect id="Rectangle" x="0" y="0" width="20" height="20"></rect>
            <mask id="mask-2" fill="white">
                <use xlink:href="#path-1"></use>
            </mask>
            <use id="EVO-icon" fill="#414751" fill-rule="nonzero" xlink:href="#path-1"></use>
            <g id="colors-/-gray-scale-/-404751" mask="url(#mask-2)" fill="#404751">
                <rect id="Rectangle" x="0" y="0" width="20" height="20"></rect>
            </g>
        </g>
    </g>
</svg>