<svg xmlns="http://www.w3.org/2000/svg" xmlns:xlink="http://www.w3.org/1999/xlink" width="53" height="53" viewBox="0 0 53 53">
    <defs>
        <path id="a" d="M27.95 17.637l8.817 8.864-8.816 8.861v-4.968l3.86-3.893-3.86-3.896v-4.968zm-2.9 17.726L16.233 26.5l8.817-8.861v4.968L21.189 26.5l3.86 3.896v4.968zm12.792 7.485l4.738-4.53a6.704 6.704 0 0 1 .162-4.889c1.25-2.962 4.34-4.597 7.462-4.051.223-1.82.239-3.639.043-5.417a6.553 6.553 0 0 1-3.655-.4c-1.76-.734-3.06-2.043-3.765-3.74-1.19-2.967-.122-6.399 2.477-8.177a24.647 24.647 0 0 0-3.8-3.872 6.793 6.793 0 0 1-8.175 2.372c-2.981-1.259-4.659-4.439-4.081-7.545a24.216 24.216 0 0 0-5.414-.031c.535 3.119-1.184 6.27-4.142 7.457a6.765 6.765 0 0 1-4.802.13l-4.587 4.327c.607 1.473.509 3.19-.307 5.09-1.23 2.908-4.37 4.58-7.436 4.063a22.57 22.57 0 0 0-.005 5.382 6.623 6.623 0 0 1 3.564.416c1.791.745 3.092 2.06 3.773 3.75 1.206 2.955.218 6.286-2.35 8.085a23.834 23.834 0 0 0 3.776 3.843c1.805-2.5 5.141-3.467 8.067-2.26 2.981 1.263 4.64 4.321 4.107 7.409 1.725.209 3.533.222 5.385.031a6.765 6.765 0 0 1 4.171-7.314 6.61 6.61 0 0 1 4.794-.13zm13.422 4.64l-1.362 1.224 1.802 1.836-2.141 2.102-1.802-1.837-1.328 1.19a1.584 1.584 0 0 1-2.25-.069l-1.54-1.64-1.637 1.685-2.91-2.989 2.311-2.313-2.144-2.401-.127.122-.4-.17-.08-.032a5.332 5.332 0 0 0-4.107.008 5.446 5.446 0 0 0-3.297 6.238l.332.766-1.11.35a27.16 27.16 0 0 1-3.186.19c-1.155 0-2.287-.076-3.387-.23l-.821-.124.037-1.02a5.44 5.44 0 0 0-3.199-6.28 5.461 5.461 0 0 0-6.723 2.085l-.111.156-.334.734-.853-.602a25.476 25.476 0 0 1-4.672-4.74l-.557-.798.824-.557c2.274-1.39 3.188-4.205 2.17-6.693A5.354 5.354 0 0 0 5.72 30.7c-1.113-.461-2.226-.554-3.32-.302l-.843.342-.268-1.174a23.872 23.872 0 0 1 .018-6.548l.101-.658.694-.185.228.053c2.695.662 5.414-.718 6.448-3.175.729-1.696.776-3.172.15-4.39l-.158-.414.034-.05-2.202-2.348-2.406 2.342-2.944-3.153 1.733-1.71-1.532-1.64a1.593 1.593 0 0 1 .074-2.255L2.98 4.242 1.177 2.401 3.26.38l1.801 1.84L6.355.918A1.588 1.588 0 0 1 8.61.99l1.537 1.64L11.922.983l2.944 3.148-2.45 2.271 2.12 2.266.07-.072.409.186c1.36.564 2.822.559 4.184.013 2.483-.999 3.885-3.726 3.257-6.341-.013-.014-.037-.112-.069-.234l-.193-.784 1.081-.135c2.096-.273 4.33-.26 6.585.034l1.166.175-.339.79a3.734 3.734 0 0 1-.082.268c-.647 2.53.715 5.289 3.19 6.33 2.55 1.058 5.401.128 6.824-2.191.016-.064.109-.196.199-.313l.395-.511.76.57a25.815 25.815 0 0 1 4.651 4.735c.109.151.188.257.244.398l.265.622-.785.34c-2.308 1.37-3.296 4.28-2.294 6.773.567 1.362 1.61 2.42 2.941 2.97 1.142.472 2.284.56 3.397.29.114-.022.189-.038.284-.064l.774-.202.053.798c.013.12.024.223.018.334.268 2.13.25 4.327-.055 6.524l-.149 1.02-1.004-.233c-2.642-.665-5.3.695-6.352 3.194a5.368 5.368 0 0 0 .008 4.271l.188.424-.133.125 2.197 2.46 2.396-2.2 2.912 2.989-1.722 1.569 1.534 1.64c.602.647.57 1.654-.077 2.258z"/>
    </defs>
    <g fill="none" fill-rule="evenodd">
        <path d="M0 0h20v20H0z"/>
        <mask id="b" fill="#fff">
            <use xlink:href="#a"/>
        </mask>
        <use fill="#3C4551" xlink:href="#a"/>
        <g fill="#404751" mask="url(#b)">
            <path d="M0 0h53v53H0z"/>
        </g>
    </g>
</svg>
