<?xml version="1.0" encoding="UTF-8"?>
<svg width="20px" height="20px" viewBox="0 0 20 20" version="1.1" xmlns="http://www.w3.org/2000/svg" xmlns:xlink="http://www.w3.org/1999/xlink">
    <!-- Generator: sketchtool 53 (72520) - https://sketchapp.com -->
    <title>2C5057E9-593B-46EA-981A-42256740DEC4</title>
    <desc>Created with sketchtool.</desc>
    <defs>
        <path d="M17.0205,15.9397 L1.4995,15.9397 L1.4995,6.6517 L6.9665,11.1447 L3.0995,14.4187 C2.9945,14.5077 2.9805,14.6667 3.0705,14.7707 C3.1195,14.8297 3.1895,14.8597 3.2605,14.8597 C3.3185,14.8597 3.3745,14.8397 3.4215,14.7997 L7.3585,11.4667 L9.1005,12.8987 C9.1475,12.9367 9.2035,12.9557 9.2595,12.9557 C9.3165,12.9557 9.3725,12.9367 9.4185,12.8987 L11.1015,11.5157 L15.1005,14.8027 C15.2085,14.8907 15.3655,14.8747 15.4535,14.7687 C15.5415,14.6617 15.5255,14.5037 15.4185,14.4167 L11.4955,11.1927 L17.0205,6.6517 L17.0205,15.9397 Z M11.1015,9.1517 C11.1015,9.2637 11.0115,9.3537 10.8995,9.3537 L7.6215,9.3537 C7.5085,9.3537 7.4175,9.2637 7.4175,9.1517 C7.4175,9.0407 7.5085,8.9497 7.6215,8.9497 L10.8995,8.9497 C11.0115,8.9497 11.1015,9.0407 11.1015,9.1517 L11.1015,9.1517 Z M6.4945,7.2147 C6.3825,7.2147 6.2915,7.1247 6.2915,7.0127 C6.2915,6.9007 6.3825,6.8107 6.4945,6.8107 L12.0265,6.8107 C12.1375,6.8107 12.2285,6.9007 12.2285,7.0127 C12.2285,7.1247 12.1375,7.2147 12.0265,7.2147 L6.4945,7.2147 Z M9.2595,0.5587 L16.8635,6.1327 L13.6575,8.7687 L13.6575,5.4227 C13.6575,5.2177 13.4905,5.0517 13.2855,5.0517 L5.2355,5.0517 C5.0305,5.0517 4.8635,5.2177 4.8635,5.4237 L4.8635,8.7687 L1.6575,6.1327 L9.2595,0.5587 Z M17.5205,6.1147 C17.5205,6.1047 17.5085,6.0997 17.5065,6.0897 C17.4985,6.0277 17.4725,5.9747 17.4265,5.9367 C17.4215,5.9317 17.4225,5.9237 17.4175,5.9197 L9.4075,0.0477 C9.3195,-0.0163 9.2005,-0.0163 9.1125,0.0477 L1.1025,5.9197 C1.0975,5.9237 1.0985,5.9317 1.0935,5.9367 C1.0475,5.9747 1.0225,6.0277 1.0135,6.0897 C1.0115,6.0997 0.9995,6.1047 0.9995,6.1147 C0.9995,6.1167 1.0005,6.1167 1.0005,6.1187 C1.0005,6.1197 0.9995,6.1207 0.9995,6.1217 L0.9995,16.1897 C0.9995,16.3277 1.1125,16.4397 1.2495,16.4397 L17.2705,16.4397 C17.4085,16.4397 17.5205,16.3277 17.5205,16.1897 L17.5205,6.1217 C17.5205,6.1207 17.5185,6.1197 17.5185,6.1187 C17.5185,6.1167 17.5205,6.1167 17.5205,6.1147 L17.5205,6.1147 Z" id="path-1"></path>
    </defs>
    <g id="Symbols" stroke="none" stroke-width="1" fill="none" fill-rule="evenodd">
        <g id="Components-/-icons-/-solutions-/-BIMobject-Mail">
            <g id="colors-/-gray-scale-/-404751" transform="translate(1.000000, 2.000000)">
                <mask id="mask-2" fill="white">
                    <use xlink:href="#path-1"></use>
                </mask>
                <g id="Mask"></g>
                <g mask="url(#mask-2)" fill="#404751" id="Rectangle">
                    <g transform="translate(-1.000000, -2.000000)">
                        <rect x="0" y="0" width="20" height="20"></rect>
                    </g>
                </g>
            </g>
        </g>
    </g>
</svg>