<svg xmlns="http://www.w3.org/2000/svg" xmlns:xlink="http://www.w3.org/1999/xlink" width="53" height="53" viewBox="0 0 53 53">
    <defs>
        <path id="a" d="M30.397 11.13l2.674 1.126a.76.76 0 1 1-.599 1.397l-2.67-1.124a.766.766 0 0 1-.406-.996.77.77 0 0 1 .416-.411.772.772 0 0 1 .585.008zm8.913 3.763a.748.748 0 0 1 .408.41c.08.191.077.395-.005.583a.76.76 0 0 1-.697.467.7.7 0 0 1-.305-.066l-2.666-1.121a.762.762 0 0 1 .583-1.407l2.682 1.134zM28.648 51.73a.205.205 0 0 0 .08-.212l-3.549-17.95a.195.195 0 0 0-.119-.155l-8.84-4.11L5.638 40.93l22.785 10.828a.208.208 0 0 0 .225-.027zM1.658 22.54l3.328 17.14 9.975-10.958L1.658 22.54zm23.958 9.672c.443.204.769.615.864 1.1l3.549 17.948a1.542 1.542 0 0 1-2.176 1.693L4.43 41.823a.909.909 0 0 1-.501-.643L.11 21.52c-.01-.069.008-.13.016-.199a.327.327 0 0 1-.116-.206.671.671 0 0 1 .166-.57L17.598 1.601a1.541 1.541 0 0 1 2.645.737l3.585 17.622a1.55 1.55 0 0 1-.369 1.339l-6.307 6.977 8.464 3.935zm8.48 18.418l16.872-18.67-14.183-6.738-6.596 7.168a.215.215 0 0 0-.05.188l3.583 17.948a.209.209 0 0 0 .156.167c.048.006.14.019.217-.063zm-6.482-31.233l8.856 4.208L47.19 11.95 24.364 1.347a.222.222 0 0 0-.226.026.217.217 0 0 0-.08.215l3.427 17.649a.225.225 0 0 0 .128.159zm23.524 11.13l-3.483-17.127-9.932 10.796 13.415 6.33zm-2.441-18.661l4.012 19.745a.667.667 0 0 1-.156.577L35.079 51.52a1.53 1.53 0 0 1-1.14.506 1.535 1.535 0 0 1-1.516-1.243L28.84 32.84c-.1-.48.04-.985.377-1.349l6.315-6.866-8.494-4.036a1.554 1.554 0 0 1-.85-1.094L22.76 1.84a1.53 1.53 0 0 1 .567-1.51 1.52 1.52 0 0 1 1.596-.184l23.42 10.881-.156.331c.013.003.024-.002.037 0a.665.665 0 0 1 .472.507z"/>
    </defs>
    <g fill="none" fill-rule="evenodd">
        <path d="M0 0h20v20H0z"/>
        <mask id="b" fill="#fff">
            <use xlink:href="#a"/>
        </mask>
        <use fill="#3A4551" xlink:href="#a"/>
        <g fill="#404751" mask="url(#b)">
            <path d="M0 0h53v53H0z"/>
        </g>
    </g>
</svg>
